<svg width="142" height="106" viewBox="0 0 142 106" fill="none" xmlns="http://www.w3.org/2000/svg">
<path d="M6.85847 49.6857C10.9755 53.3299 16.5822 55.8485 22.7428 56.8443V44.5338C22.7428 43.7545 23.3744 43.1228 24.1537 43.1228H25.5647V14.902H0.166504V36.1144C0.166504 41.0462 2.5429 45.8663 6.85847 49.6857Z" fill="white"/>
<path d="M25.5649 57.0275L42.4973 57.3101V45.9451H41.0863H26.9762H25.5649V57.0275Z" fill="#A584BD"/>
<path d="M22.7428 72.7546V59.6974C15.8839 58.6692 9.60163 55.8828 4.98785 51.7988C3.01184 50.0499 1.39843 48.104 0.166504 46.0332V105.208H25.5647V74.1653H24.1537C23.3744 74.1653 22.7428 73.5336 22.7428 72.7546Z" fill="white"/>
<path d="M42.4973 60.1324L25.5649 59.8499V71.3436H26.9762H41.0863H42.4973V60.1324Z" fill="#A584BD"/>
<path d="M39.6753 74.1652H28.3872V105.208H39.6753V74.1652Z" fill="white"/>
<path d="M39.6753 14.9023H28.3872V43.1231H39.6753V14.9023Z" fill="white"/>
<path d="M113.048 14.9023H101.76V43.1231H113.048V14.9023Z" fill="white"/>
<path d="M98.9385 57.311L115.871 57.14V45.9451H114.46H100.349H98.9385V57.311Z" fill="#A584BD"/>
<path d="M96.1161 0.79187H45.3193V12.0803H96.1161V0.79187Z" fill="white"/>
<path d="M45.3193 44.5338V57.3267H96.1161V44.5338C96.1161 43.7544 96.7478 43.1228 97.5271 43.1228H98.938V14.902H97.5271H43.9084H42.4971V43.1228H43.9084C44.6874 43.1231 45.3193 43.7548 45.3193 44.5338Z" fill="white"/>
<path d="M115.871 59.9655L98.9385 60.1333V71.3436H100.349H114.46H115.871V59.9655Z" fill="#A584BD"/>
<path d="M137.597 51.2661C133.2 55.3917 127.076 58.3241 120.351 59.5237C119.804 59.6214 119.25 59.7047 118.693 59.7803V72.7545C118.693 73.5339 118.061 74.1652 117.282 74.1652H115.871V105.208H141.834V46.0402C140.726 47.9034 139.305 49.6629 137.597 51.2661Z" fill="white"/>
<path d="M115.871 14.9023V43.1232H117.282C118.061 43.1232 118.693 43.7548 118.693 44.5341V56.9309C119.082 56.8745 119.472 56.8146 119.856 56.746C132.591 54.4744 141.833 45.7978 141.833 36.1147V14.9023H115.871Z" fill="white"/>
<path d="M113.048 74.1652H101.76V105.208H113.048V74.1652Z" fill="white"/>
<path d="M96.1161 72.7545V60.1489H45.3193V72.7545C45.3193 73.5338 44.6877 74.1652 43.9084 74.1652H42.4971V105.208H98.9384V74.1652H97.5274C96.7478 74.1652 96.1161 73.5335 96.1161 72.7545ZM60.8404 86.8646H55.1965V81.2207H60.8404V86.8646ZM69.3066 86.8646H63.6624V81.2207H69.3066V86.8646ZM77.7731 86.8646H72.1289V81.2207H77.7731V86.8646ZM86.2389 86.8646H80.5947V81.2207H86.2389V86.8646Z" fill="white"/>
</svg>
