<svg width="136" height="124" viewBox="0 0 136 124" fill="none" xmlns="http://www.w3.org/2000/svg">
<path fill-rule="evenodd" clip-rule="evenodd" d="M0.463867 123.316H135.537V71.9202H0.463867V123.316ZM102.518 91.8218C104.588 91.8218 106.59 92.4487 108.272 93.6063C109.954 92.4487 111.955 91.8218 114.026 91.8218C119.611 91.8218 124.156 96.3488 124.156 101.913C124.156 107.476 119.611 112.002 114.026 112.002C111.956 112.002 109.954 111.375 108.272 110.218C106.589 111.375 104.587 112.002 102.518 112.002C96.9327 112.002 92.3888 107.476 92.3888 101.913C92.3888 96.3485 96.9327 91.8218 102.518 91.8218ZM38.2844 83.2336H67.9998C68.8288 83.2336 69.5008 83.9056 69.5008 84.7346C69.5008 85.5636 68.8288 86.2356 67.9998 86.2356H38.2844C37.4558 86.2356 36.7835 85.5636 36.7835 84.7346C36.7835 83.9056 37.4558 83.2336 38.2844 83.2336ZM13.3459 83.2336H27.7285C28.5572 83.2336 29.2295 83.9056 29.2295 84.7346C29.2295 85.5636 28.5575 86.2356 27.7285 86.2356H13.3459C12.5172 86.2356 11.8449 85.5636 11.8449 84.7346C11.8449 83.9056 12.5172 83.2336 13.3459 83.2336ZM13.3459 93.3225H79.5068C80.3357 93.3225 81.0077 93.9945 81.0077 94.8235C81.0077 95.6524 80.3357 96.3244 79.5068 96.3244H13.3459C12.5172 96.3244 11.8449 95.6524 11.8449 94.8235C11.8449 93.9945 12.5172 93.3225 13.3459 93.3225Z" fill="white"/>
<path fill-rule="evenodd" clip-rule="evenodd" d="M72.1708 28.8332L125.897 28.8355L23.3274 0.684814L15.332 28.8355L44.5801 28.8358C54.2106 28.8339 63.1861 28.8332 72.1708 28.8332Z" fill="white"/>
<path fill-rule="evenodd" clip-rule="evenodd" d="M0.463867 51.882V68.9184H135.537V51.8801L63.4719 51.8791C45.158 51.8788 26.0078 51.8797 0.463867 51.882Z" fill="#36ABCC"/>
<path fill-rule="evenodd" clip-rule="evenodd" d="M102.518 109C104.277 109 105.966 108.358 107.274 107.192C107.559 106.939 107.915 106.812 108.273 106.812C108.629 106.812 108.987 106.939 109.271 107.193C110.578 108.358 112.267 109 114.026 109C117.956 109 121.155 105.82 121.155 101.913C121.155 98.0035 117.957 94.8228 114.026 94.8228C112.266 94.8228 110.578 95.4647 109.272 96.63C108.702 97.1377 107.843 97.1377 107.274 96.6303C105.966 95.4647 104.278 94.8228 102.518 94.8228C98.588 94.8228 95.3906 98.0035 95.3906 101.913C95.3906 105.821 98.588 109 102.518 109Z" fill="#36ABCC"/>
<path fill-rule="evenodd" clip-rule="evenodd" d="M135.366 31.8375H44.7624C31.7446 31.8398 17.5333 31.8446 0.463867 31.8532V48.8804C26.0053 48.8782 45.1593 48.8772 63.4719 48.8772L135.537 48.8785V31.8375H135.366ZM21.9754 43.1506H16.2213V37.4247H21.9754V43.1506ZM33.481 43.1506H27.7282V37.4247H33.481V43.1506ZM44.9879 43.1506H39.2342V37.4247H44.9879V43.1506ZM56.4939 43.1506H50.7408V37.4247H56.4939V43.1506Z" fill="white"/>
</svg>
