<svg width="165" height="143" viewBox="0 0 165 143" fill="none" xmlns="http://www.w3.org/2000/svg">
<path d="M2.2334 76.1106H150.827V66.5836H141.507L2.2334 66.5849C2.2334 66.5849 2.2334 67.1317 2.2334 67.8616V74.8364C2.2334 75.5638 2.2334 76.1106 2.2334 76.1106Z" fill="white"/>
<path d="M101.755 78.4565V132.598H143.536V78.4565H101.755ZM135.127 111.817C135.127 111.817 134.215 111.817 133.303 111.817H110.699C109.606 111.817 108.876 111.817 108.876 111.817L108.877 86.6596C108.877 86.6596 109.789 86.6596 110.701 86.6596H133.305C134.399 86.6596 135.129 86.6596 135.129 86.6596L135.127 111.817Z" fill="white"/>
<path d="M151.351 78.4565H145.7V132.598H161.559L157.913 35.2527H144.606L143.513 64.4205H151.169C152.263 64.4205 152.993 64.4205 152.993 64.4205V78.4565C152.993 78.4565 152.262 78.4565 151.351 78.4565Z" fill="white"/>
<path d="M68.042 24.3151C71.6876 25.9555 77.3387 24.1333 80.6207 20.3046C91.0121 7.90924 100.674 10.825 109.605 15.7473C116.168 19.3928 122.365 17.2058 128.563 15.0186C131.297 14.1069 133.849 13.1952 136.401 12.8315C144.787 11.373 148.25 21.2177 149.345 25.2269H154.084C153.719 16.8407 151.167 11.0079 146.793 8.27412C142.964 5.9039 138.407 6.26882 135.491 7.5455C125.464 12.1029 114.345 10.8261 102.131 3.53502C94.6567 -1.02235 83.7197 -1.20431 74.7869 3.17007C68.7712 6.08708 65.1253 10.4612 64.3955 15.3838C64.0318 19.7582 65.1254 23.0402 68.0424 24.3156L68.042 24.3151Z" fill="#A584BD"/>
<path d="M141.689 32.9068H161.014V27.3904H141.689V32.9068Z" fill="white"/>
<path d="M50.0069 132.416V78.4565H8.9668V132.598H50.0069V132.416ZM16.2705 86.6593C16.2705 86.6593 17.1822 86.6593 18.094 86.6593H40.6988C41.7924 86.6593 42.5223 86.6593 42.5223 86.6593V111.816C42.5223 111.816 41.6105 111.816 40.6988 111.816H18.0927C16.9991 111.816 16.2692 111.816 16.2692 111.816L16.2705 86.6593Z" fill="white"/>
<path d="M163.541 134.879H2.02766C1.29903 134.879 0.750977 134.879 0.750977 134.879L0.750977 142.925C0.750977 142.925 1.29776 142.925 2.02766 142.925H163.723C164.452 142.925 165 142.925 165 142.925V134.879C165 134.879 164.27 134.879 163.54 134.879H163.541Z" fill="white"/>
<path d="M99.409 132.416V78.4565H52.1709V132.598H99.409V132.416ZM62.7559 86.708C62.7559 86.708 63.6676 86.6593 64.5794 86.6593H87.1842C88.2778 86.6593 89.0077 86.6593 89.0077 86.6593V111.816C89.0077 111.816 88.096 111.816 87.1842 111.816H64.5781C63.4845 111.816 62.7546 111.816 62.7546 111.816L62.7559 86.708Z" fill="white"/>
</svg>
