<svg width="320" height="368" fill="none" xmlns="http://www.w3.org/2000/svg"><g opacity=".05" fill="#333"><path d="M31.87 278.822l.483.13.004-.015.003-.014-.49-.101zm182.041-97.661l-.024.499.024-.499zm68.756 154.696l-.263-.426.263.426zm-169.542 53.909l.047-.498-.047.498zM32.36 278.923c3.238-15.803 13.074-41.82 39.842-63.033 26.765-21.209 70.519-37.663 141.685-34.23l.048-.999c-71.341-3.442-115.353 13.049-142.354 34.446-26.998 21.394-36.928 47.645-40.201 63.615l.98.201zm181.527-97.263c44.491 2.147 74.353 10.781 93.292 22.996 18.915 12.2 26.947 27.978 27.797 44.51.851 16.562-5.504 33.939-15.488 49.291-9.981 15.347-23.561 28.622-37.084 36.974l.525.851c13.658-8.435 27.341-21.818 37.398-37.28 10.054-15.46 16.513-33.046 15.647-49.887-.867-16.871-9.083-32.934-28.253-45.299-19.148-12.35-49.209-21.004-93.786-23.155l-.048.999zm68.517 153.771c-26.599 16.429-48.417 31.821-73.856 42.152-25.409 10.32-54.431 15.585-95.376 11.685l-.095.996c41.091 3.913 70.276-1.369 95.847-11.754 25.542-10.373 47.476-25.842 74.005-42.228l-.525-.851zm-169.232 53.837c-32.367-3.082-54.831-22.17-68.082-44.759-13.263-22.611-17.252-48.659-12.737-65.557l-.966-.259c-4.6 17.218-.522 43.541 12.84 66.322 13.377 22.803 36.097 42.129 68.85 45.249l.095-.996z"/><path d="M164.69 449.924l.205.456.017-.007.016-.009-.238-.44zm-134.383 0l.317-.386-.317.386zM-82.979 294.449l-.444.229.444-.229zm71.878-156.261l-.088-.492.088.492zm274.234-2.342l.067-.496-.067.496zm105.474 186.727l.366.342-.366-.342zM164.484 449.469c-14.412 6.492-38.422 14.287-63.573 16.56-25.163 2.274-51.372-.987-70.287-16.491l-.634.773c19.213 15.748 45.741 18.998 71.011 16.714 25.281-2.285 49.399-10.115 63.894-16.645l-.411-.911zm-133.86.069c-47.579-38.999-73.465-78.672-113.16-155.319l-.887.459C-43.711 371.361-17.75 411.181 29.99 450.311l.634-.773zm-113.16-155.319c-13.094-25.287-17.955-60.152-8.17-90.698 9.774-30.51 34.17-56.748 79.692-64.841l-.175-.984c-45.888 8.158-70.582 34.658-80.469 65.52-9.875 30.825-4.97 65.965 8.235 91.462l.888-.459zm71.522-155.539c105.405-18.739 199.264-12.346 274.081-2.338l.133-.992c-74.872-10.014-168.844-16.418-274.389 2.346l.175.984zm274.081-2.338c61.189 8.184 101.463 39.739 119.447 76.679 17.987 36.945 13.698 79.298-14.272 109.211l.731.683c28.282-30.247 32.588-73.055 14.441-110.332-18.151-37.281-58.74-69.01-120.214-77.233l-.133.992zm105.175 185.89c-18.094 19.351-56.182 44.188-96.221 67.695-40.019 23.496-81.91 45.621-107.57 59.558l.477.879c25.646-13.93 67.562-36.067 107.599-59.574 40.018-23.496 78.236-48.401 96.446-67.875l-.731-.683zM116.248 524.149l.18.466.014-.005.013-.006-.207-.455zm295.329-189.855l-.358-.348.358.348zm-3.125-165.634l.397-.304-.397.304zm-527.373-51.566l-.366-.341.366.341zm-60.16 182.823l-.386.318.386-.318zm295.536 224.687c56.284-25.666 119.976-62.691 174.677-98.524 54.691-35.826 100.437-70.488 120.804-91.437l-.717-.697c-20.285 20.864-65.95 55.476-120.635 91.298-54.674 35.815-118.321 72.811-174.544 98.45l.415.91zm295.481-189.961c27.481-28.267 32.576-62.204 27.871-92.872-4.702-30.651-19.197-58.074-30.958-73.415l-.794.608c11.677 15.231 26.091 42.5 30.764 72.959 4.67 30.443-.391 64.036-27.6 92.023l.717.697zm-3.087-166.287c-25.11-32.753-61.148-52.329-93.317-64.204-32.17-11.876-60.528-16.07-70.273-18.018l-.196.98c9.789 1.958 38.046 6.135 70.123 17.976 32.078 11.842 67.92 31.331 92.869 63.874l.794-.608zm-163.59-82.222C225.704 82.223 95.985 65.03 38.961 58l-.122.993c57.045 7.033 186.715 24.219 206.224 28.12l.196-.98zM38.961 58c-57.19-7.05-113.618 11.043-158.248 58.752l.731.683C-74.15 69.965-18.04 51.981 38.839 58.994L38.96 58zm-158.248 58.752c-22.661 24.225-49.467 55.721-64.738 88.318-15.274 32.603-19.057 66.432 4.558 95.164l.772-.635c-23.262-28.303-19.622-61.665-4.425-94.105 15.2-32.445 41.912-63.844 64.564-88.059l-.731-.683zm-60.18 183.482c23.46 28.544 55.259 66.39 83.402 100.689 28.137 34.292 52.525 64.926 61.096 78.952l.854-.522c-8.617-14.1-33.06-44.798-61.177-79.064-28.11-34.259-59.986-72.199-83.403-100.69l-.772.635zm144.499 179.641c8.63 14.121 25.103 33.539 50.118 45.311 25.034 11.781 58.577 15.882 101.278-.572l-.36-.933c-42.46 16.361-75.718 12.259-100.492.6-24.792-11.666-41.132-30.922-49.691-44.928l-.853.522zm-22.23 63.025l-.425.263.425-.263zm201.574 19.532l.309.394-.309-.394zm315.643-224.231l-.319-.385.319.385zM217.037 47.558l.123-.484-.123.484zM11.557 2.243l-.064.496.064-.496zm-128.133 48.44l.313.39-.313-.39zm-128.914 143.76l.421.27-.421-.27zm29.689 171.103l-.31.393.31-.393zm158.178 177.617c11.403 18.482 39.29 41.212 75.653 50.42 36.395 9.217 81.285 4.89 126.655-30.757l-.618-.787c-45.118 35.45-89.686 39.718-125.791 30.575-36.138-9.152-63.794-31.737-75.048-49.976l-.851.525zm202.308 19.663c54.674-42.959 116.978-85.259 173.922-123.702 56.932-38.434 108.523-73.023 141.731-100.538l-.638-.77c-33.16 27.476-84.7 62.031-141.652 100.48-56.94 38.439-119.274 80.759-173.981 123.743l.618.787zm315.653-224.24c27.51-22.794 36.136-55.215 30.548-89.826-5.586-34.595-25.372-71.403-54.72-103.098l-.733.679c29.249 31.59 48.918 68.224 54.465 102.579 5.545 34.339-3.017 66.375-30.198 88.896l.638.77zm-24.172-192.924c-29.332-31.679-51.067-47.986-82.014-60.544-30.901-12.54-70.997-21.342-136.992-38.044l-.246.969c66.058 16.718 106.045 25.496 136.862 38.001 30.772 12.488 52.391 28.691 81.657 60.297l.733-.679zM217.16 47.073C90.594 15.041 54.626 7.221 11.62 1.747l-.127.992C54.43 8.204 90.341 16.01 216.915 48.043l.246-.97zM11.62 1.747C-7.93-.74-26.062.185-46.318 7.352c-20.243 7.163-42.582 20.55-70.57 42.941l.625.78C-88.319 28.719-66.08 15.406-45.984 8.296-25.901 1.189-7.932.267 11.493 2.739l.127-.992zm-128.508 48.546c-46.137 36.91-89.928 82.891-129.023 143.88l.842.54c39.032-60.892 82.748-106.792 128.806-143.64l-.625-.78zm-129.023 143.88c-18.006 28.09-32.542 53.713-31.54 81.001 1.003 27.326 17.569 56.171 61.34 90.765l.62-.785c-43.679-34.521-59.974-63.123-60.961-90.017-.988-26.932 13.357-52.303 31.383-80.424l-.842-.54zm29.8 171.766c48.407 38.257 107.568 94.695 158.488 177.224l.85-.525c-50.995-82.653-110.244-139.174-158.718-177.484l-.62.785z"/></g></svg>