<svg width="225" height="45" viewBox="0 0 225 45" fill="none" xmlns="http://www.w3.org/2000/svg">
<g opacity="0.4" clip-path="url(#clip0_117_2682)">
<path d="M121.576 31.2194V33.4692H107.261V8.48193H121.18V10.7318H109.652V19.4036H120.253V21.696H109.655V31.2259L121.576 31.2194Z" fill="#333333"/>
<path d="M143.352 23.4383V33.4693H141.059V23.9066C141.059 19.6919 139.025 17.5174 135.563 17.5174C131.994 17.5174 129.246 20.4058 129.246 24.2963V33.466H126.953V15.762H128.846L129.203 18.7978C130.667 16.6921 133.133 15.3723 136.055 15.3723C140.316 15.3723 143.352 18.4048 143.352 23.4383Z" fill="#333333"/>
<path d="M166.52 25.3998H150.419C150.776 29.1856 153.56 31.7662 157.533 31.7662C160.248 31.7662 162.318 30.6953 163.602 28.5208H165.992C164.46 31.8382 161.532 33.908 157.497 33.908C152.001 33.908 148.11 29.9126 148.11 24.6303C148.11 19.3479 152.073 15.3918 157.32 15.3918C162.675 15.3918 166.566 19.2103 166.566 24.6008C166.556 24.889 166.52 25.151 166.52 25.3998ZM150.455 23.4022H164.211C163.821 19.9767 161.286 17.4779 157.333 17.4779C153.704 17.4779 150.983 19.8686 150.455 23.4022Z" fill="#333333"/>
<path d="M181.769 15.762V18.0118H179.984C176.166 18.0118 173.879 20.4385 173.879 24.5812V33.4692H171.587V15.762H173.48L173.837 18.8698C175.193 16.8689 177.299 15.762 180.155 15.762H181.769Z" fill="#333333"/>
<path d="M202.684 15.762V31.2193C202.684 37.3237 199.15 40.7852 193.366 40.7852C188.761 40.7852 185.656 38.4634 184.621 35.0739H187.009C187.936 37.3237 190.114 38.6435 193.399 38.6435C197.611 38.6435 200.394 36.2528 200.394 31.4682V30.0044C199.494 31.0472 198.375 31.8789 197.116 32.4403C195.858 33.0018 194.491 33.2793 193.114 33.253C187.795 33.253 183.868 29.3625 183.868 24.293C183.868 19.2235 187.798 15.3722 193.114 15.3722C194.501 15.3506 195.877 15.6345 197.142 16.2038C198.408 16.7732 199.533 17.6141 200.437 18.6668L200.794 15.7751L202.684 15.762ZM200.506 24.293C200.506 20.4385 197.542 17.514 193.33 17.514C189.118 17.514 186.154 20.4024 186.154 24.293C186.154 28.1835 189.082 31.1473 193.33 31.1473C197.578 31.1473 200.506 28.1999 200.506 24.293Z" fill="#333333"/>
<path d="M225 15.762L216.004 34.6088C213.934 38.8924 212.221 40.3562 208.579 40.3562H207.315V38.1784H208.494C211.025 38.1784 212.168 37.3597 213.776 34.075L214.667 32.2182L206.479 15.762H208.952L215.879 29.7195L222.518 15.762H225Z" fill="#333333"/>
<path d="M44.869 18.9944V33.3711H40.4968V19.7738C40.4715 18.09 40.7386 16.4147 41.2861 14.8222C41.7569 13.4563 42.5026 12.2013 43.4771 11.1347C44.4137 10.1327 45.5599 9.34996 46.8341 8.84229C48.189 8.30664 49.6349 8.03862 51.0917 8.05304C54.2446 8.05304 56.7904 9.0879 58.7293 11.1576C60.6682 13.2273 61.6365 16.1005 61.6343 19.7771V33.3711H57.2489V18.9944C57.2489 17.0295 56.6649 15.4291 55.4968 14.1934C54.9358 13.5897 54.2531 13.112 53.4937 12.7919C52.7343 12.4718 51.9156 12.3166 51.0917 12.3366C49.2184 12.3366 47.7162 12.985 46.5852 14.2818C45.4425 15.582 44.83 17.264 44.869 18.9944Z" fill="#333333"/>
<path d="M67.0031 2.75768C66.9992 2.39703 67.0673 2.03921 67.2034 1.70519C67.3394 1.37117 67.5408 1.06765 67.7957 0.812411C68.0501 0.549629 68.3558 0.341936 68.6938 0.202224C69.0319 0.0625126 69.395 -0.00623677 69.7607 0.000243272C70.1221 -0.0108347 70.4818 0.0536419 70.8168 0.189547C71.1518 0.325451 71.4547 0.529791 71.7062 0.789487C71.9584 1.04943 72.1561 1.35716 72.2877 1.69459C72.4193 2.03202 72.4822 2.39235 72.4725 2.75441C72.4799 3.11422 72.411 3.47152 72.2705 3.80284C72.1299 4.13415 71.9209 4.43198 71.657 4.67676C71.4107 4.92984 71.1157 5.13051 70.7898 5.2667C70.464 5.40289 70.1139 5.4718 69.7607 5.46928C69.3982 5.47403 69.0385 5.40441 68.7039 5.26472C68.3693 5.12503 68.0669 4.91824 67.8153 4.65711C67.557 4.41303 67.3516 4.11848 67.2119 3.79174C67.0722 3.465 67.0011 3.11304 67.0031 2.75768ZM67.4944 8.49198H71.9289V33.381H67.4944V8.49198Z" fill="#333333"/>
<path d="M0.000213475 2.75628C-0.00431248 2.39582 0.0631705 2.03809 0.198706 1.70406C0.334242 1.37002 0.535103 1.0664 0.789515 0.811002C1.04247 0.545399 1.34839 0.335864 1.68745 0.19596C2.02652 0.0560548 2.39119 -0.0111026 2.75786 -0.00116629C3.11972 -0.0125018 3.47996 0.0518434 3.81553 0.18775C4.15109 0.323656 4.45457 0.528129 4.70655 0.788078C4.95772 1.04861 5.15455 1.35652 5.28556 1.69386C5.41657 2.0312 5.47915 2.39124 5.46965 2.753C5.47619 3.1124 5.40729 3.46917 5.26738 3.80029C5.12748 4.13141 4.91969 4.42951 4.65742 4.67535C4.41042 4.92824 4.11479 5.12853 3.78834 5.26417C3.46188 5.39981 3.11135 5.46798 2.75786 5.46459C2.39529 5.46935 2.0356 5.39973 1.701 5.26004C1.3664 5.12035 1.06399 4.91356 0.812441 4.65243C0.555782 4.40777 0.351459 4.11357 0.211845 3.78765C0.0722321 3.46172 0.000234527 3.11084 0.000213475 2.75628ZM0.49148 8.49057H4.91288V33.3796H0.49148V8.49057Z" fill="#333333"/>
<path d="M80.4503 33.371H76.9033V29.1464H79.6151C80.3751 29.1602 81.1299 29.0175 81.8324 28.7272C82.5555 28.3985 83.1824 27.89 83.6533 27.2503C84.3185 26.372 84.8688 25.4123 85.2909 24.3946C85.9271 22.8923 86.4739 21.3537 86.9284 19.7868C88.0769 16.0448 89.4896 13.2065 91.1664 11.2722C92.8433 9.33782 94.6828 8.38483 96.685 8.41321H100.33V12.5821H97.5987C97.0981 12.5753 96.601 12.6675 96.1362 12.8535C95.6713 13.0396 95.2479 13.3157 94.8902 13.6661C94.0943 14.4446 93.4364 15.3526 92.9448 16.3515C92.3888 17.4543 91.9191 18.5984 91.5398 19.7737C91.1468 20.992 90.8018 22.0923 90.5048 23.0748C90.0463 24.5223 89.554 25.877 89.0278 27.1389C88.5504 28.3235 87.8943 29.428 87.0824 30.4138C86.3267 31.3245 85.3854 32.0636 84.3214 32.5818C83.1095 33.1409 81.7844 33.411 80.4503 33.371Z" fill="#333333"/>
<path d="M95.7023 30.7575C95.698 30.3981 95.7655 30.0414 95.9011 29.7084C96.0366 29.3755 96.2374 29.073 96.4917 28.8188C96.745 28.5546 97.0505 28.346 97.3888 28.2061C97.7271 28.0663 98.0908 27.9984 98.4567 28.0066C98.8186 27.9953 99.1788 28.0597 99.5144 28.1956C99.8499 28.3315 100.153 28.5359 100.405 28.7959C100.657 29.0564 100.853 29.3643 100.984 29.7017C101.115 30.039 101.178 30.3991 101.169 30.7608C101.175 31.1202 101.106 31.477 100.966 31.8081C100.826 32.1392 100.619 32.4373 100.356 32.6832C100.105 32.9347 99.8072 33.1342 99.479 33.2704C99.1508 33.4065 98.7989 33.4766 98.4436 33.4766C98.0883 33.4766 97.7365 33.4065 97.4083 33.2704C97.0801 33.1342 96.7819 32.9347 96.531 32.6832L96.5113 32.6635C96.2529 32.4183 96.0478 32.1225 95.9087 31.7946C95.7695 31.4667 95.6993 31.1137 95.7023 30.7575Z" fill="#333333"/>
<path d="M22.6641 8.00056C24.9729 8.00103 27.2377 8.63174 29.2143 9.82467C31.1488 11.0096 32.714 12.7108 33.734 14.737C34.394 15.9395 34.805 17.2627 34.9425 18.6275C35.0255 19.8087 35.0659 21.2376 35.0637 22.9143V31.894C35.0637 35.9636 33.9229 39.1741 31.6412 41.5254C29.3595 43.8768 26.2678 45.0339 22.3661 44.9968H15.5211V40.6543H22.4643C24.9949 40.6543 26.9905 39.924 28.4512 38.4634C29.9119 37.0028 30.6434 34.9418 30.6456 32.2805V20.9592C30.6456 18.3393 29.9065 16.2292 28.4283 14.6289C26.9501 13.0286 25.0451 12.2317 22.7132 12.2382C21.6383 12.2062 20.5687 12.4024 19.5752 12.8139C18.5816 13.2255 17.6865 13.8429 16.9491 14.6256C15.436 16.2281 14.6805 18.2891 14.6827 20.8086C14.6645 22.0274 14.8733 23.239 15.2984 24.3815C15.6842 25.4079 16.2735 26.3459 17.0309 27.1389C17.7693 27.9144 18.6618 28.5268 19.651 28.9368C20.6859 29.3785 21.8009 29.6015 22.9261 29.5918C24.472 29.5918 27.4851 29.4968 27.4851 29.4968V33.6297C27.4851 33.6297 24.1248 33.7771 22.3825 33.7771C19.9882 33.809 17.6448 33.086 15.6849 31.7106C13.9539 30.5214 12.5504 28.9154 11.6041 27.0407C10.6572 25.1359 10.1756 23.0338 10.1991 20.9068C10.1862 19.1473 10.5039 17.401 11.1357 15.7587C11.7116 14.235 12.5917 12.8443 13.7223 11.6716C14.8529 10.4988 16.2104 9.56847 17.7122 8.93718C19.2765 8.27332 20.9654 7.95389 22.6641 8.00056Z" fill="#333333"/>
</g>
<defs>
<clipPath id="clip0_117_2682">
<rect width="225" height="45" fill="white"/>
</clipPath>
</defs>
</svg>
