<svg width="320" height="368" viewBox="0 0 320 368" fill="none" xmlns="http://www.w3.org/2000/svg">
<g opacity="0.05">
<path d="M31.8697 278.822L32.3528 278.952L32.3566 278.937L32.3596 278.923L31.8697 278.822ZM213.911 181.161L213.887 181.66L213.911 181.161ZM282.667 335.857L282.404 335.431L282.667 335.857ZM113.125 389.766L113.172 389.268L113.125 389.766ZM32.3596 278.923C35.5978 263.12 45.4335 237.103 72.2021 215.89C98.9671 194.681 142.721 178.227 213.887 181.66L213.935 180.661C142.594 177.219 98.5821 193.71 71.581 215.107C44.5835 236.501 34.6525 262.752 31.3799 278.722L32.3596 278.923ZM213.887 181.66C258.378 183.807 288.24 192.441 307.179 204.656C326.094 216.856 334.126 232.634 334.976 249.166C335.827 265.728 329.472 283.105 319.488 298.457C309.507 313.804 295.927 327.079 282.404 335.431L282.929 336.282C296.587 327.847 310.27 314.464 320.327 299.002C330.381 283.542 336.84 265.956 335.974 249.115C335.107 232.244 326.891 216.181 307.721 203.816C288.573 191.466 258.512 182.812 213.935 180.661L213.887 181.66ZM282.404 335.431C255.805 351.86 233.987 367.252 208.548 377.583C183.139 387.903 154.117 393.168 113.172 389.268L113.077 390.264C154.168 394.177 183.353 388.895 208.924 378.51C234.466 368.137 256.4 352.668 282.929 336.282L282.404 335.431ZM113.172 389.268C80.805 386.186 58.3406 367.098 45.0903 344.509C31.8271 321.898 27.8378 295.85 32.3528 278.952L31.3867 278.693C26.7865 295.911 30.8647 322.234 44.2277 345.015C57.6037 367.818 80.3243 387.144 113.077 390.264L113.172 389.268Z" fill="#333333"/>
<path d="M164.69 449.924L164.895 450.38L164.912 450.373L164.928 450.364L164.69 449.924ZM30.3072 449.924L30.6241 449.538L30.3072 449.924ZM-82.9791 294.449L-83.4231 294.678L-82.9791 294.449ZM-11.1014 138.188L-11.1889 137.696L-11.1014 138.188ZM263.133 135.846L263.2 135.35L263.133 135.846ZM368.607 322.573L368.973 322.915L368.607 322.573ZM164.484 449.469C150.072 455.961 126.062 463.756 100.911 466.029C75.7479 468.303 49.539 465.042 30.6241 449.538L29.9902 450.311C49.2025 466.059 75.731 469.309 101.001 467.025C126.282 464.74 150.4 456.91 164.895 450.38L164.484 449.469ZM30.6241 449.538C-16.9547 410.539 -42.8412 370.866 -82.5351 294.219L-83.4231 294.678C-43.7109 371.361 -17.7488 411.181 29.9902 450.311L30.6241 449.538ZM-82.5351 294.219C-95.6305 268.932 -100.491 234.067 -90.7056 203.521C-80.9316 173.011 -56.5365 146.773 -11.0139 138.68L-11.1889 137.696C-57.0773 145.854 -81.771 172.354 -91.658 203.216C-101.533 234.041 -96.6276 269.181 -83.4231 294.678L-82.5351 294.219ZM-11.0139 138.68C94.3906 119.941 188.25 126.334 263.067 136.342L263.2 135.35C188.328 125.336 94.3559 118.932 -11.1889 137.696L-11.0139 138.68ZM263.067 136.342C324.256 144.526 364.53 176.081 382.514 213.021C400.501 249.966 396.212 292.319 368.242 322.232L368.973 322.915C397.255 292.668 401.561 249.86 383.414 212.583C365.263 175.302 324.674 143.573 263.2 135.35L263.067 136.342ZM368.242 322.232C350.148 341.583 312.06 366.42 272.021 389.927C232.002 413.423 190.111 435.548 164.451 449.485L164.928 450.364C190.574 436.434 232.49 414.297 272.527 390.79C312.545 367.294 350.763 342.389 368.973 322.915L368.242 322.232Z" fill="#333333"/>
<path d="M116.248 524.149L116.428 524.615L116.442 524.61L116.455 524.604L116.248 524.149ZM411.577 334.294L411.219 333.946L411.577 334.294ZM408.452 168.66L408.849 168.356L408.452 168.66ZM-118.921 117.094L-119.287 116.753L-118.921 117.094ZM-179.081 299.917L-179.467 300.235L-179.081 299.917ZM116.455 524.604C172.739 498.938 236.431 461.913 291.132 426.08C345.823 390.254 391.569 355.592 411.936 334.643L411.219 333.946C390.934 354.81 345.269 389.422 290.584 425.244C235.91 461.059 172.263 498.055 116.04 523.694L116.455 524.604ZM411.936 334.643C439.417 306.376 444.512 272.439 439.807 241.771C435.105 211.12 420.61 183.697 408.849 168.356L408.055 168.964C419.732 184.195 434.146 211.464 438.819 241.923C443.489 272.366 438.428 305.959 411.219 333.946L411.936 334.643ZM408.849 168.356C383.739 135.603 347.701 116.027 315.532 104.152C283.362 92.276 255.004 88.0827 245.259 86.1338L245.063 87.1144C254.852 89.0721 283.109 93.2486 315.186 105.09C347.264 116.932 383.106 136.421 408.055 168.964L408.849 168.356ZM245.259 86.1338C225.704 82.2227 95.9846 65.0315 38.9609 58.0012L38.8386 58.9937C95.8839 66.0267 225.554 83.2126 245.063 87.1144L245.259 86.1338ZM38.9609 58.0012C-18.229 50.9504 -74.6571 69.0436 -119.287 116.753L-118.556 117.436C-74.1496 69.9649 -18.0404 51.9812 38.8386 58.9937L38.9609 58.0012ZM-119.287 116.753C-141.948 140.978 -168.754 172.474 -184.025 205.071C-199.299 237.674 -203.082 271.503 -179.467 300.235L-178.695 299.6C-201.957 271.297 -198.317 237.935 -183.12 205.495C-167.92 173.05 -141.208 141.651 -118.556 117.436L-119.287 116.753ZM-179.467 300.235C-156.007 328.779 -124.208 366.625 -96.0648 400.924C-67.9278 435.216 -43.5401 465.85 -34.9685 479.876L-34.1152 479.354C-42.7321 465.254 -67.1754 434.556 -95.2917 400.29C-123.402 366.031 -155.278 328.091 -178.695 299.6L-179.467 300.235ZM-34.9685 479.876C-26.3389 493.997 -9.8654 513.415 15.1504 525.187C40.184 536.968 73.7265 541.069 116.428 524.615L116.068 523.682C73.6082 540.043 40.3501 535.941 15.5762 524.282C-9.21552 512.616 -25.5564 493.36 -34.1152 479.354L-34.9685 479.876Z" fill="#333333"/>
<path d="M-57.1977 542.9L-57.6232 543.163L-57.1977 542.9ZM144.376 562.432L144.685 562.826L144.376 562.432ZM460.019 338.201L459.7 337.816L460.019 338.201ZM217.037 47.5582L217.16 47.0735L217.037 47.5582ZM11.5566 2.24336L11.4935 2.73936L11.5566 2.24336ZM-116.576 50.6834L-116.263 51.0738L-116.576 50.6834ZM-245.49 194.443L-245.069 194.713L-245.49 194.443ZM-215.801 365.546L-216.111 365.939L-215.801 365.546ZM-57.6232 543.163C-46.2197 561.645 -18.3335 584.375 18.0301 593.583C54.4255 602.8 99.3152 598.473 144.685 562.826L144.067 562.039C98.9495 597.489 54.3809 601.757 18.2756 592.614C-17.8616 583.462 -45.5184 560.877 -56.7722 542.638L-57.6232 543.163ZM144.685 562.826C199.359 519.867 261.663 477.567 318.607 439.124C375.539 400.69 427.13 366.101 460.338 338.586L459.7 337.816C426.54 365.292 375 399.847 318.048 438.296C261.108 476.735 198.774 519.055 144.067 562.039L144.685 562.826ZM460.338 338.586C487.848 315.792 496.474 283.371 490.886 248.76C485.3 214.165 465.514 177.357 436.166 145.662L435.433 146.341C464.682 177.931 484.351 214.565 489.898 248.92C495.443 283.259 486.881 315.295 459.7 337.816L460.338 338.586ZM436.166 145.662C406.834 113.983 385.099 97.6757 354.152 85.1177C323.251 72.5781 283.155 63.7762 217.16 47.0735L216.914 48.0429C282.972 64.7614 322.959 73.5388 353.776 86.0444C384.548 98.5316 406.167 114.735 435.433 146.341L436.166 145.662ZM217.16 47.0735C90.5941 15.0411 54.6257 7.22065 11.6197 1.74736L11.4935 2.73936C54.4298 8.20379 90.3408 16.0085 216.914 48.0429L217.16 47.0735ZM11.6197 1.74736C-7.93091 -0.740813 -26.0617 0.184595 -46.3179 7.35207C-66.5615 14.5151 -88.9004 27.9026 -116.888 50.293L-116.263 51.0738C-88.3189 28.7181 -66.0799 15.4054 -45.9844 8.2948C-25.9015 1.18867 -7.93213 0.267099 11.4935 2.73936L11.6197 1.74736ZM-116.888 50.293C-163.025 87.2033 -206.816 133.184 -245.911 194.173L-245.069 194.713C-206.037 133.821 -162.321 87.9207 -116.263 51.0738L-116.888 50.293ZM-245.911 194.173C-263.917 222.263 -278.453 247.886 -277.451 275.174C-276.448 302.5 -259.882 331.345 -216.111 365.939L-215.491 365.154C-259.17 330.633 -275.465 302.031 -276.452 275.137C-277.44 248.205 -263.095 222.834 -245.069 194.713L-245.911 194.173ZM-216.111 365.939C-167.704 404.196 -108.543 460.634 -57.6232 543.163L-56.7722 542.638C-107.768 459.985 -167.017 403.464 -215.491 365.154L-216.111 365.939Z" fill="#333333"/>
</g>
</svg>
