<svg width="320" height="592" viewBox="0 0 320 592" fill="none" xmlns="http://www.w3.org/2000/svg">
<g opacity="0.05">
<path d="M271.87 272.822L272.353 272.952L272.357 272.937L272.36 272.923L271.87 272.822ZM453.911 175.161L453.887 175.66L453.911 175.161ZM522.667 329.857L522.404 329.431L522.667 329.857ZM353.125 383.766L353.172 383.268L353.125 383.766ZM272.36 272.923C275.598 257.12 285.434 231.103 312.202 209.89C338.967 188.681 382.721 172.227 453.887 175.66L453.935 174.661C382.594 171.219 338.582 187.71 311.581 209.107C284.584 230.501 274.653 256.752 271.38 272.722L272.36 272.923ZM453.887 175.66C498.378 177.807 528.24 186.441 547.179 198.656C566.094 210.856 574.126 226.634 574.976 243.166C575.827 259.728 569.472 277.105 559.488 292.457C549.507 307.804 535.927 321.079 522.404 329.431L522.929 330.282C536.587 321.847 550.27 308.464 560.327 293.002C570.381 277.542 576.84 259.956 575.974 243.115C575.107 226.244 566.891 210.181 547.721 197.816C528.573 185.466 498.512 176.812 453.935 174.661L453.887 175.66ZM522.404 329.431C495.805 345.86 473.987 361.252 448.548 371.583C423.139 381.903 394.117 387.168 353.172 383.268L353.077 384.264C394.168 388.177 423.353 382.895 448.924 372.51C474.466 362.137 496.4 346.668 522.929 330.282L522.404 329.431ZM353.172 383.268C320.805 380.186 298.341 361.098 285.09 338.509C271.827 315.898 267.838 289.85 272.353 272.952L271.387 272.693C266.787 289.911 270.865 316.234 284.228 339.015C297.604 361.818 320.324 381.144 353.077 384.264L353.172 383.268Z" fill="#333333"/>
<path d="M404.69 443.924L404.895 444.38L404.912 444.373L404.928 444.364L404.69 443.924ZM270.307 443.924L270.624 443.538L270.307 443.924ZM157.021 288.449L156.577 288.678L157.021 288.449ZM228.899 132.188L228.811 131.696L228.899 132.188ZM503.133 129.846L503.2 129.35L503.133 129.846ZM608.607 316.573L608.973 316.915L608.607 316.573ZM404.484 443.469C390.072 449.961 366.062 457.756 340.911 460.029C315.748 462.303 289.539 459.042 270.624 443.538L269.99 444.311C289.202 460.059 315.731 463.309 341.001 461.025C366.282 458.74 390.4 450.91 404.895 444.38L404.484 443.469ZM270.624 443.538C223.045 404.539 197.159 364.866 157.465 288.219L156.577 288.678C196.289 365.361 222.251 405.181 269.99 444.311L270.624 443.538ZM157.465 288.219C144.37 262.932 139.509 228.067 149.294 197.521C159.068 167.011 183.463 140.773 228.986 132.68L228.811 131.696C182.923 139.854 158.229 166.354 148.342 197.216C138.467 228.041 143.372 263.181 156.577 288.678L157.465 288.219ZM228.986 132.68C334.391 113.941 428.25 120.334 503.067 130.342L503.2 129.35C428.328 119.336 334.356 112.932 228.811 131.696L228.986 132.68ZM503.067 130.342C564.256 138.526 604.53 170.081 622.514 207.021C640.501 243.966 636.212 286.319 608.242 316.232L608.973 316.915C637.255 286.668 641.561 243.86 623.414 206.583C605.263 169.302 564.674 137.573 503.2 129.35L503.067 130.342ZM608.242 316.232C590.148 335.583 552.06 360.42 512.021 383.927C472.002 407.423 430.111 429.548 404.451 443.485L404.928 444.364C430.574 430.434 472.49 408.297 512.527 384.79C552.545 361.294 590.763 336.389 608.973 316.915L608.242 316.232Z" fill="#333333"/>
<path d="M356.248 518.149L356.428 518.615L356.442 518.61L356.455 518.604L356.248 518.149ZM651.577 328.294L651.219 327.946L651.577 328.294ZM648.452 162.66L648.849 162.356L648.452 162.66ZM121.079 111.094L120.713 110.753L121.079 111.094ZM60.919 293.917L60.5328 294.235L60.919 293.917ZM356.455 518.604C412.739 492.938 476.431 455.913 531.132 420.08C585.823 384.254 631.569 349.592 651.936 328.643L651.219 327.946C630.934 348.81 585.269 383.422 530.584 419.244C475.91 455.059 412.263 492.055 356.04 517.694L356.455 518.604ZM651.936 328.643C679.417 300.376 684.512 266.439 679.807 235.771C675.105 205.12 660.61 177.697 648.849 162.356L648.055 162.964C659.732 178.195 674.146 205.464 678.819 235.923C683.489 266.366 678.428 299.959 651.219 327.946L651.936 328.643ZM648.849 162.356C623.739 129.603 587.701 110.027 555.532 98.1519C523.362 86.276 495.004 82.0827 485.259 80.1338L485.063 81.1144C494.852 83.0721 523.109 87.2486 555.186 99.09C587.264 110.932 623.106 130.421 648.055 162.964L648.849 162.356ZM485.259 80.1338C465.704 76.2227 335.985 59.0315 278.961 52.0012L278.839 52.9937C335.884 60.0266 465.554 77.2126 485.063 81.1144L485.259 80.1338ZM278.961 52.0012C221.771 44.9504 165.343 63.0436 120.713 110.753L121.444 111.436C165.85 63.9649 221.96 45.9812 278.839 52.9937L278.961 52.0012ZM120.713 110.753C98.0521 134.978 71.2457 166.474 55.9747 199.071C40.7011 231.674 36.9183 265.503 60.5328 294.235L61.3053 293.6C38.0432 265.297 41.6834 231.935 56.8803 199.495C72.0799 167.05 98.7915 135.651 121.444 111.436L120.713 110.753ZM60.5328 294.235C83.9932 322.779 115.792 360.625 143.935 394.924C172.072 429.216 196.46 459.85 205.031 473.876L205.885 473.354C197.268 459.254 172.825 428.556 144.708 394.29C116.598 360.031 84.7219 322.091 61.3053 293.6L60.5328 294.235ZM205.031 473.876C213.661 487.997 230.135 507.415 255.15 519.187C280.184 530.968 313.727 535.069 356.428 518.615L356.068 517.682C313.608 534.043 280.35 529.941 255.576 518.282C230.784 506.616 214.444 487.36 205.885 473.354L205.031 473.876Z" fill="#333333"/>
<path d="M182.802 536.9L182.377 537.163L182.802 536.9ZM384.376 556.432L384.685 556.826L384.376 556.432ZM700.019 332.201L699.7 331.816L700.019 332.201ZM457.037 41.5582L457.16 41.0735L457.037 41.5582ZM251.557 -3.75664L251.493 -3.26064L251.557 -3.75664ZM123.424 44.6834L123.737 45.0738L123.424 44.6834ZM-5.49042 188.443L-5.06948 188.713L-5.49042 188.443ZM24.1994 359.546L23.8894 359.939L24.1994 359.546ZM182.377 537.163C193.78 555.645 221.667 578.375 258.03 587.583C294.425 596.8 339.315 592.473 384.685 556.826L384.067 556.039C338.95 591.489 294.381 595.757 258.276 586.614C222.138 577.462 194.482 554.877 183.228 536.638L182.377 537.163ZM384.685 556.826C439.359 513.867 501.663 471.567 558.607 433.124C615.539 394.69 667.13 360.101 700.338 332.586L699.7 331.816C666.54 359.292 615 393.847 558.048 432.296C501.108 470.735 438.774 513.055 384.067 556.039L384.685 556.826ZM700.338 332.586C727.848 309.792 736.474 277.371 730.886 242.76C725.3 208.165 705.514 171.357 676.166 139.662L675.433 140.341C704.682 171.931 724.351 208.565 729.898 242.92C735.443 277.259 726.881 309.295 699.7 331.816L700.338 332.586ZM676.166 139.662C646.834 107.983 625.099 91.6757 594.152 79.1177C563.251 66.5781 523.155 57.7762 457.16 41.0735L456.914 42.0429C522.972 58.7614 562.959 67.5388 593.776 80.0444C624.548 92.5316 646.167 108.735 675.433 140.341L676.166 139.662ZM457.16 41.0735C330.594 9.04114 294.626 1.22065 251.62 -4.25264L251.493 -3.26064C294.43 2.20379 330.341 10.0085 456.914 42.0429L457.16 41.0735ZM251.62 -4.25264C232.069 -6.74081 213.938 -5.81541 193.682 1.35207C173.439 8.51506 151.1 21.9026 123.112 44.293L123.737 45.0738C151.681 22.7181 173.92 9.40541 194.016 2.2948C214.098 -4.81133 232.068 -5.7329 251.493 -3.26064L251.62 -4.25264ZM123.112 44.293C76.9747 81.2033 33.1841 127.184 -5.91136 188.173L-5.06948 188.713C33.9634 127.821 77.6787 81.9207 123.737 45.0738L123.112 44.293ZM-5.91136 188.173C-23.9172 216.263 -38.4528 241.886 -37.4511 269.174C-36.4481 296.5 -19.8816 325.345 23.8894 359.939L24.5095 359.154C-19.1703 324.633 -35.4647 296.031 -36.4518 269.137C-37.4404 242.205 -23.0955 216.834 -5.06948 188.713L-5.91136 188.173ZM23.8894 359.939C72.2964 398.196 131.457 454.634 182.377 537.163L183.228 536.638C132.232 453.985 72.9826 397.464 24.5095 359.154L23.8894 359.939Z" fill="#333333"/>
</g>
</svg>
