<svg width="1920" height="651" fill="none" xmlns="http://www.w3.org/2000/svg"><g clip-path="url(#clip0_355_2692)"><path fill="#9470AF" d="M0 0h1920v651H0z"/><path fill="#B690D2" d="M753 498h27v29h-27zm40-22h115v51H793zm162-.349h148V527H955z"/><path fill="#B690D2" d="M1054 453.186h148V527h-148zM955 435h20v92h-20zm34 0h20v92h-20zm32 0h20v92h-20zm-633 18h141v74H388z"/><path fill="#B690D2" d="M407 422h20v92h-20zm32 0h20v92h-20zm114 54h135v51H553z"/><path fill="#B690D2" d="M639 435h90v92h-90zm-53 0h20v92h-20z"/><path fill="#B690D2" d="M695 398h20v92h-20zm-35 0h20v92h-20zm584 78h220v51h-220z"/><path fill="#B690D2" d="M1330 435h90v92h-90zm-53 0h20v92h-20z"/><path fill="#B690D2" d="M1386 398h20v92h-20zm-35 0h20v92h-20z"/><rect y="521" width="1920" height="260" rx="2" fill="#8863A4"/><rect y="549" width="1920" height="204" rx="2" fill="#7C5798"/><rect y="592" width="1920" height="118" rx="2" fill="#6D4B87"/><path fill="#5F3E78" d="M969 521h6v98h-6zm-202 0h6v51h-6z"/><path fill="#44245C" d="M767 539h6v6h-6zm0 13h6v6h-6z"/><path fill="#5F3E78" d="M621 521h6v51h-6zm23 0h6v51h-6zm669 0h6v98h-6zm-320 0h6v98h-6zm-116 0h6v77h-6zm-413 0h6v77h-6z"/><path fill="#5F3E78" d="M1319 613v6H970v-6zm-349-41v6H621v-6zm-87 20v6H464v-6z"/><path fill="#44245C" d="M784 572h6v6h-6zm49 0h6v6h-6zm12 0h6v6h-6zm267 41h6v6h-6zm16 0h6v6h-6zm149 0h6v6h-6zm36 0h6v6h-6zm0-16h6v6h-6zm0-43h6v6h-6zm0-19h6v6h-6zm-344 37h6v6h-6zm0-14h6v6h-6zm24 34h6v6h-6zm24 21h6v6h-6zm-156-21h6v6h-6zm-135 0h6v6h-6zm-17 0h6v6h-6zm-135 0h6v6h-6zm-21 0h6v6h-6zm-89 0h6v6h-6zm0-14h6v6h-6zm0-12h6v6h-6zm122 26h6v6h-6z"/></g><defs><clipPath id="clip0_355_2692"><path fill="#fff" d="M0 0h1920v651H0z"/></clipPath></defs></svg>