<svg width="1387" height="1433" fill="none" xmlns="http://www.w3.org/2000/svg"><g opacity=".05" fill="#333"><path d="M742.305 667.789l.483.129.004-.014.003-.014-.49-.101zm436.905-234.393l-.02.499.02-.499zm165.02 371.279l-.26-.426.26.426zM937.322 934.06l.047-.498-.047.498zM742.795 667.89c7.796-38.044 31.469-100.651 95.875-151.69 64.403-51.035 169.59-90.551 340.52-82.305l.05-.999c-171.1-8.255-276.552 31.298-341.191 82.521-64.635 51.219-88.403 114.06-96.234 152.272l.98.201zm436.395-233.995c106.84 5.155 178.65 25.891 224.25 55.303 45.58 29.396 64.98 67.464 67.04 107.379 2.05 39.944-13.28 81.798-37.29 118.717-24.01 36.916-56.67 68.851-89.22 88.955l.52.851c32.69-20.187 65.46-52.23 89.54-89.261 24.08-37.027 39.51-79.089 37.44-119.314-2.07-40.253-21.66-78.607-67.49-108.168-45.81-29.546-117.81-50.302-224.74-55.461l-.05.999zm164.78 370.354c-63.79 39.4-116.24 76.396-177.36 101.221-61.1 24.813-130.87 37.461-229.241 28.092l-.095.996c98.516 9.383 168.446-3.283 229.706-28.162 61.23-24.866 113.79-61.939 177.51-101.296l-.52-.851zM937.369 933.562c-77.953-7.424-132.048-53.402-163.938-107.767-31.902-54.386-41.539-117.095-30.643-157.877l-.966-.258c-10.981 41.1-1.255 104.084 30.747 158.641 32.015 54.579 86.366 100.796 164.705 108.257l.095-.996z"/><path d="M1061.08 1078.44l.21.46.01-.01.02-.01-.24-.44zm-322.526 0l.317-.38-.317.38zM466.661 705.293l-.444.229.444-.229zm172.51-375.034l-.087-.493.087.493zm658.179-5.621l.07-.496-.07.496zm253.14 448.156l.37.341-.37-.341zm-489.62 305.196c-34.64 15.61-92.345 34.34-152.8 39.8-60.467 5.47-123.594-2.35-169.199-39.73l-.634.77c45.903 37.62 109.349 45.43 169.923 39.96 60.585-5.48 118.39-24.25 153.13-39.89l-.42-.91zm-321.999.07c-114.304-93.695-176.486-189.014-271.766-372.997l-.888.459c95.298 184.019 157.556 279.485 272.02 373.308l.634-.77zM467.105 705.063c-31.506-60.837-43.204-144.708-19.655-218.215 23.537-73.471 82.296-136.628 191.809-156.097l-.175-.985c-109.879 19.535-168.936 82.953-192.586 156.777-23.639 73.787-11.896 157.932 19.719 218.979l.888-.459zm172.154-374.312c253.075-44.992 478.421-29.641 658.021-5.618l.14-.991c-179.66-24.03-405.121-39.393-658.336 5.624l.175.985zm658.021-5.618c147.06 19.67 243.94 95.525 287.22 184.423 43.28 88.903 32.98 190.87-34.37 262.896l.73.683c67.66-72.36 77.98-174.782 34.54-264.017-43.45-89.238-140.64-165.268-287.98-184.976l-.14.991zm252.85 447.319c-43.51 46.529-135.01 106.188-231.1 162.598-96.06 56.399-196.61 109.51-258.19 142.95l.48.88c61.56-33.43 162.14-86.557 258.22-142.967 96.06-56.399 187.7-116.125 231.32-162.778l-.73-.683zM944.817 1256.59l.179.46h.014l.014-.01-.207-.45zm708.803-455.665l-.36-.349.36.349zm-7.5-397.532l.4-.304-.4.304zM380.397 279.633l-.365-.341.365.341zM236.011 718.418l-.386.318.386-.318zm709.013 538.622c135.046-61.58 287.876-150.42 419.146-236.41 131.25-85.981 240.99-169.138 289.81-219.356l-.72-.698c-48.74 50.134-158.39 133.24-289.64 219.214-131.24 85.97-284.03 174.79-419.011 236.34l.415.91zm708.956-455.766c65.77-67.646 77.97-148.857 66.71-222.303-11.27-73.431-46-139.138-74.17-175.882l-.79.609c28.08 36.633 62.73 102.186 73.97 175.424 11.23 73.223-.94 154.089-66.44 221.454l.72.698zm-7.46-398.185c-60.15-78.462-146.51-125.384-223.65-153.862-77.15-28.479-145.14-38.531-168.56-43.215l-.19.981c23.46 4.692 91.35 14.728 168.4 43.172 77.05 28.445 163.21 75.28 223.21 153.533l.79-.609zm-392.21-197.077c-46.9-9.38-358.197-50.636-495.072-67.511l-.122.992c136.896 16.878 448.144 58.129 495.004 67.5l.19-.981zm-495.072-67.511c-137.041-16.896-272.249 26.452-379.206 140.791l.73.683c106.735-114.1 241.623-157.339 378.354-140.482l.122-.992zM380.032 279.292C325.65 337.426 261.38 412.95 224.778 491.079c-36.603 78.135-45.583 159 10.847 227.657l.772-.635c-56.077-68.229-47.24-148.627-10.713-226.598 36.53-77.977 100.706-153.403 155.078-211.528l-.73-.683zM235.625 718.736c56.275 68.47 132.649 159.368 200.171 241.66 67.515 82.284 126.086 155.854 146.69 189.564l.854-.52c-20.65-33.79-79.276-107.42-146.771-189.678-67.489-82.252-143.94-173.244-200.172-241.661l-.772.635zm346.861 431.224c20.662 33.81 60.107 80.31 119.989 108.49 59.9 28.18 140.205 38.03 242.521-1.4l-.359-.93c-102.075 39.33-182.096 29.49-241.736 1.42-59.658-28.07-98.97-74.4-119.561-108.1l-.854.52zm-53.948 151.63l-.426.26.426-.26zm483.792 46.88l.31.39-.31-.39zm757.56-538.169l-.32-.385.32.385zm-583.17-697.559l.12-.484-.12.484zM693.552 3.984l-.063.496.063-.496zM386.027 120.243l.313.39-.313-.39zM76.625 465.274l.42.27-.42-.27zm71.257 410.657l-.31.392.31-.392zm380.23 425.919c27.264 44.19 94.032 98.64 181.148 120.7 87.148 22.07 194.661 11.73 303.38-73.69l-.62-.78c-108.464 85.22-215.656 95.5-302.514 73.5-86.89-22-153.428-76.31-180.543-120.25l-.851.52zm484.528 47.01c131.24-103.12 280.79-204.66 417.46-296.92 136.65-92.251 260.44-175.244 340.11-241.254l-.64-.77c-79.62 65.971-203.36 148.929-340.03 241.194-136.66 92.26-286.25 193.82-417.52 296.97l.62.78zm757.57-538.174c65.79-54.516 86.45-132.059 73.07-214.936-13.38-82.862-60.79-171.081-131.16-247.078l-.73.68c70.27 75.89 117.56 163.936 130.9 246.557 13.34 82.606-7.26 159.764-72.72 214.007l.64.77zm-58.09-462.014c-70.35-75.979-122.43-115.046-196.58-145.136-74.11-30.072-170.27-51.18-328.7-91.278l-.25.969c158.5 40.114 254.55 61.198 328.57 91.235 73.98 30.02 125.95 68.982 196.23 144.89l.73-.68zm-525.28-236.414C883.069 35.377 796.783 16.618 693.615 3.488l-.126.992c103.098 13.121 189.326 31.864 493.101 108.747l.25-.969zM693.615 3.488c-46.835-5.96-90.237-3.742-138.732 13.417C506.401 34.06 452.856 66.14 385.715 119.852l.625.781C453.438 66.954 506.883 34.95 555.217 17.848 603.538.75 646.779-1.465 693.489 4.48l.126-.992zm-307.9 116.364C275.038 208.395 169.991 318.695 76.204 465.004l.842.54C170.77 319.332 275.742 209.112 386.34 120.633l-.625-.781zM76.204 465.004C32.974 532.442-1.778 593.763.617 659.006c2.396 65.283 41.966 134.342 146.955 217.317l.62-.784C43.294 792.635 3.996 723.819 1.616 658.97c-2.382-64.888 32.18-125.957 75.43-193.426l-.842-.54zm71.368 411.319c116.226 91.857 258.276 227.367 380.54 425.527l.851-.52c-122.34-198.29-264.479-333.882-380.771-425.791l-.62.784z"/></g></svg>