<svg width="459" height="244" fill="none" xmlns="http://www.w3.org/2000/svg"><g clip-path="url(#clip0_123_2996)"><path d="M216.789 221.539v5.283h-33.532v-58.679h32.609v5.282h-27.009v20.371h24.866v5.354h-24.866v22.389h27.932zm50.997-18.281v23.564h-5.351V204.35c0-9.889-4.737-15.005-12.871-15.005-8.36 0-14.801 6.79-14.801 15.931v21.546h-5.352V185.19h4.429l.84 7.123a19.16 19.16 0 017.031-6.021 19.088 19.088 0 019.025-2.016c9.946.047 17.05 7.17 17.05 18.982zm54.277 4.618h-37.724c.841 8.879 7.365 14.922 16.636 14.922 6.359 0 11.213-2.517 14.209-7.633h5.601a20.934 20.934 0 01-8.003 9.408 20.856 20.856 0 01-11.901 3.246c-12.871 0-21.988-9.378-21.988-21.795a21.169 21.169 0 016.14-15.493 21.044 21.044 0 0115.433-6.208c12.539 0 21.657 8.963 21.657 21.618.011.76-.06 1.341-.06 1.935zm-37.629-4.749h32.183c-.924-8.048-6.856-13.913-16.139-13.913a15.723 15.723 0 00-10.731 3.856 15.8 15.8 0 00-5.325 10.105l.012-.048zm73.317-17.937v5.283h-4.18c-8.951 0-14.303 5.698-14.303 15.432v20.882h-5.364V185.19h4.441l.828 7.301c3.185-4.749 8.111-7.301 14.801-7.301h3.777zm48.997 0v36.302c0 14.329-8.288 22.46-21.822 22.46-10.787 0-18.057-5.448-20.484-13.414h5.6c2.179 5.283 7.271 8.393 14.967 8.393 9.863 0 16.387-5.627 16.387-16.857v-3.431a22.033 22.033 0 01-7.685 5.714 21.972 21.972 0 01-9.377 1.907c-12.456 0-21.645-9.128-21.645-21.035s9.189-20.953 21.645-20.953a22.132 22.132 0 0117.145 7.704l.841-6.79h4.428zm-5.103 20.039c0-9.058-6.939-15.931-16.802-15.931s-16.802 6.79-16.802 15.931c0 9.141 6.856 16.097 16.802 16.097s16.802-6.909 16.802-16.05v-.047zM459 185.19l-21.064 44.268c-4.855 10.054-8.869 13.497-17.394 13.497h-2.924v-5.116h2.723c5.92 0 8.608-1.935 12.373-9.64l2.084-4.357-19.11-38.652h5.837l16.222 32.776 15.487-32.776H459zM203.114 86.149v65.291h-19.845V89.71a66.215 66.215 0 013.552-22.46 47.936 47.936 0 019.922-16.762A42.131 42.131 0 01211.947 40.1a50.796 50.796 0 0119.288-3.56c14.272 0 25.793 4.692 34.563 14.078 8.77 9.386 13.155 22.425 13.155 39.116v61.73h-19.881V86.173c0-8.936-2.64-16.2-7.921-21.796a26.27 26.27 0 00-9.076-6.345 26.213 26.213 0 00-10.875-2.036c-8.462 0-15.263 2.944-20.402 8.832a31.378 31.378 0 00-7.684 21.32zm100.1-73.637a12.234 12.234 0 013.552-8.82A11.898 11.898 0 01315.693 0a11.72 11.72 0 018.81 3.56 12.333 12.333 0 013.481 8.952 11.682 11.682 0 01-3.682 8.725 12.205 12.205 0 01-17.382-.119 11.79 11.79 0 01-3.706-8.607zm2.273 26.021h20.129v112.883h-20.129V38.533zM0 12.51a12.243 12.243 0 013.552-8.82A11.922 11.922 0 0112.48-.002a11.742 11.742 0 018.833 3.561 12.326 12.326 0 013.457 8.94 11.684 11.684 0 01-3.682 8.725 11.934 11.934 0 01-8.585 3.561 11.92 11.92 0 01-8.797-3.692A11.74 11.74 0 010 12.51zm2.226 26.022h20.129v112.883H2.225V38.532zm361.86 112.885H348.03v-19.22h12.267a25.299 25.299 0 0010.029-1.899 21.456 21.456 0 008.289-6.707 60.128 60.128 0 007.352-12.964 183.667 183.667 0 007.353-20.905c5.21-16.984 11.604-29.872 19.182-38.664 7.578-8.793 15.902-13.118 24.972-12.975h16.494v18.993h-12.314a17.075 17.075 0 00-12.255 4.915 44.697 44.697 0 00-8.81 12.192 108.626 108.626 0 00-6.358 15.527 1726.69 1726.69 0 00-4.736 14.982c-2.084 6.553-4.314 12.698-6.69 18.436a56.69 56.69 0 01-8.81 14.862 38.056 38.056 0 01-12.48 9.841 39.192 39.192 0 01-17.429 3.586z" fill="#fff"/><path d="M433.104 139.569a12.246 12.246 0 013.552-8.832 11.892 11.892 0 018.916-3.692 11.725 11.725 0 018.81 3.561 12.377 12.377 0 013.457 8.939 11.69 11.69 0 01-.919 4.749 11.684 11.684 0 01-2.763 3.965 12.267 12.267 0 01-8.719 3.572 12.256 12.256 0 01-8.675-3.679 11.806 11.806 0 01-3.659-8.583z" fill="#AACB36"/><path d="M102.563 36.302a57.176 57.176 0 0129.602 8.31 55.193 55.193 0 0120.578 22.317 46.765 46.765 0 015.459 17.653c.371 5.365.556 11.847.556 19.445v40.682c0 18.48-5.166 33.049-15.499 43.71-10.333 10.66-24.344 15.915-42.034 15.765H70.226v-19.707h31.437c11.454 0 20.484-3.316 27.091-9.948 6.607-6.632 9.915-15.982 9.923-28.051v-51.39c0-11.92-3.343-21.495-10.029-28.729-6.686-7.233-15.306-10.846-25.86-10.838-10.562 0-19.245 3.613-26.05 10.838-6.804 7.226-10.237 16.58-10.3 28.064a44.903 44.903 0 002.794 16.204 36.738 36.738 0 007.803 12.512 35.3 35.3 0 0011.84 8.168 37.325 37.325 0 0014.825 2.896c6.998 0 20.638-.427 20.638-.427v18.756s-15.215.677-23.089.677a51.536 51.536 0 01-30.324-9.39 56.941 56.941 0 01-18.4-21.119 61.006 61.006 0 01-6.347-27.838 63.455 63.455 0 014.24-23.35 54.342 54.342 0 0111.681-18.554 54.178 54.178 0 0118.05-12.407 53.576 53.576 0 0122.414-4.25z" fill="#fff"/></g><defs><clipPath id="clip0_123_2996"><path fill="#fff" d="M0 0h459v244H0z"/></clipPath></defs></svg>