<svg width="225" height="45" fill="none" xmlns="http://www.w3.org/2000/svg"><g clip-path="url(#clip0_119_2738)"><path d="M121.579 31.222v2.25h-14.316V8.482h13.92v2.25h-11.529v8.673h10.602v2.293h-10.599v9.53l11.922-.006zm21.777-7.782v10.032h-2.293v-9.564c0-4.215-2.034-6.39-5.495-6.39-3.57 0-6.318 2.89-6.318 6.78v9.17h-2.293V15.764h1.893l.357 3.036c1.464-2.106 3.93-3.425 6.852-3.425 4.261 0 7.297 3.032 7.297 8.066zm23.169 1.962h-16.101c.357 3.786 3.141 6.367 7.114 6.367 2.715 0 4.785-1.071 6.068-3.246h2.391c-1.532 3.318-4.46 5.387-8.496 5.387-5.495 0-9.386-3.995-9.386-9.278s3.963-9.246 9.21-9.246c5.355 0 9.246 3.82 9.246 9.21-.01.295-.046.557-.046.806zm-16.065-1.998h13.756c-.39-3.426-2.925-5.925-6.878-5.925-3.629 0-6.351 2.391-6.878 5.925zm31.313-7.641v2.25h-1.785c-3.818 0-6.105 2.427-6.105 6.57v8.889h-2.292v-17.71h1.893l.357 3.109c1.356-2.001 3.462-3.108 6.318-3.108h1.614zm20.916 0v15.459c0 6.104-3.534 9.566-9.318 9.566-4.605 0-7.71-2.322-8.745-5.712h2.388c.927 2.25 3.105 3.57 6.39 3.57 4.212 0 6.996-2.39 6.996-7.175v-1.465a9.387 9.387 0 01-7.281 3.25c-5.319 0-9.246-3.891-9.246-8.961s3.93-8.922 9.246-8.922a9.449 9.449 0 017.323 3.295l.357-2.892 1.89-.013zm-2.178 8.532c0-3.855-2.964-6.78-7.176-6.78s-7.176 2.889-7.176 6.78c0 3.89 2.928 6.854 7.176 6.854s7.176-2.963 7.176-6.854zm24.496-8.532L216.01 34.61c-2.07 4.284-3.783 5.748-7.425 5.748h-1.264V38.18h1.179c2.531 0 3.674-.819 5.283-4.104l.89-1.857-8.188-16.457h2.473l6.927 13.958 6.639-13.958h2.483z" fill="#9470AF"/><path d="M44.87 18.996v14.378h-4.372v-13.6c-.026-1.684.241-3.36.79-4.952a10.543 10.543 0 012.19-3.688 9.288 9.288 0 013.357-2.292 11.242 11.242 0 014.258-.79c3.153 0 5.699 1.036 7.638 3.105 1.939 2.07 2.907 4.944 2.905 8.62v13.596H57.25V18.995c0-1.965-.584-3.566-1.752-4.801a5.808 5.808 0 00-4.405-1.857c-1.873 0-3.376.648-4.507 1.945a6.904 6.904 0 00-1.716 4.713zM67.005 2.758a2.705 2.705 0 01.792-1.946A2.646 2.646 0 0169.762 0a2.58 2.58 0 011.946.79 2.707 2.707 0 01.766 1.964 2.568 2.568 0 01-.815 1.923 2.621 2.621 0 01-1.897.792 2.659 2.659 0 01-1.945-.812 2.6 2.6 0 01-.812-1.9zm.49 5.734h4.435v24.891h-4.434V8.493zM0 2.756A2.695 2.695 0 01.79.811a2.62 2.62 0 011.968-.813 2.594 2.594 0 011.948.79 2.722 2.722 0 01.763 1.965 2.577 2.577 0 01-.812 1.922 2.64 2.64 0 01-1.9.79 2.66 2.66 0 01-1.945-.813A2.62 2.62 0 010 2.756zm.49 5.735h4.422v24.89H.49V8.492zm79.962 24.882h-3.547V29.15h2.712a5.59 5.59 0 002.218-.42 4.697 4.697 0 001.82-1.477 13.1 13.1 0 001.638-2.856 41.451 41.451 0 001.638-4.608c1.148-3.744 2.56-6.583 4.238-8.515 1.677-1.932 3.516-2.885 5.519-2.86h3.645v4.17h-2.732a3.776 3.776 0 00-2.708 1.084 9.792 9.792 0 00-1.946 2.686 23.751 23.751 0 00-1.405 3.422 177.252 177.252 0 00-1.035 3.302c-.458 1.445-.95 2.8-1.477 4.064a12.51 12.51 0 01-1.945 3.275 8.414 8.414 0 01-2.761 2.168 8.657 8.657 0 01-3.872.79zm15.253-2.613a2.696 2.696 0 01.79-1.94 2.62 2.62 0 011.964-.811 2.592 2.592 0 011.949.789 2.73 2.73 0 01.763 1.965 2.578 2.578 0 01-.812 1.922 2.702 2.702 0 01-2.968.574 2.703 2.703 0 01-.877-.6 2.6 2.6 0 01-.81-1.9zM22.665 8.001c2.309 0 4.574.63 6.55 1.824a12.19 12.19 0 014.52 4.913 10.199 10.199 0 011.208 3.89 61.45 61.45 0 01.122 4.288v8.98c0 4.07-1.141 7.28-3.423 9.632-2.282 2.352-5.374 3.51-9.276 3.472h-6.845v-4.343h6.944c2.53 0 4.526-.73 5.987-2.19 1.46-1.462 2.192-3.523 2.194-6.184V20.96c0-2.62-.739-4.73-2.217-6.331-1.478-1.6-3.383-2.398-5.715-2.39a7.603 7.603 0 00-5.765 2.387c-1.513 1.602-2.268 3.663-2.266 6.183a9.843 9.843 0 00.616 3.573 8.169 8.169 0 001.732 2.758 7.77 7.77 0 002.62 1.798c1.036.44 2.15.663 3.276.655 1.546 0 4.559-.095 4.559-.095v4.133s-3.36.148-5.103.148a11.395 11.395 0 01-6.698-2.067 12.527 12.527 0 01-4.08-4.67 13.427 13.427 0 01-1.406-6.135 13.96 13.96 0 01.937-5.148 11.99 11.99 0 016.576-6.822A11.791 11.791 0 0122.665 8z" fill="#A0C51F"/></g><defs><clipPath id="clip0_119_2738"><path fill="#fff" d="M0 0h225v45H0z"/></clipPath></defs></svg>