<svg width="320" height="355" viewBox="0 0 320 355" fill="none" xmlns="http://www.w3.org/2000/svg">
<g opacity="0.05">
<path d="M215.621 192.175L215.138 192.046L215.134 192.06L215.131 192.075L215.621 192.175ZM83.376 263.122L83.4001 262.622L83.376 263.122ZM33.4284 150.742L33.6912 151.168L33.4284 150.742ZM156.593 111.58L156.545 112.078L156.593 111.58ZM215.131 192.075C212.783 203.531 205.651 222.4 186.236 237.785C166.825 253.167 135.075 265.115 83.4001 262.622L83.3519 263.621C135.202 266.123 167.21 254.138 186.857 238.569C206.501 223.002 213.728 203.9 216.11 192.275L215.131 192.075ZM83.4001 262.622C51.091 261.064 29.4252 254.794 15.6958 245.938C1.98981 237.098 -3.82005 225.676 -4.43507 213.712C-5.05158 201.719 -0.449411 189.123 6.79383 177.986C14.0349 166.853 23.8855 157.224 33.6912 151.168L33.1657 150.317C23.2259 156.456 13.2713 166.193 5.95553 177.441C-1.35813 188.687 -6.06466 201.491 -5.43376 213.763C-4.80134 226.065 1.19231 237.774 15.1538 246.779C29.092 255.769 50.9576 262.058 83.3519 263.621L83.4001 262.622ZM33.6912 151.168C53.0233 139.227 68.8577 128.056 87.3237 120.557C105.76 113.069 126.821 109.247 156.545 112.078L156.64 111.082C126.769 108.237 105.546 112.077 86.9474 119.63C68.3788 127.171 52.4285 138.419 33.1657 150.317L33.6912 151.168ZM156.545 112.078C180.006 114.312 196.29 128.145 205.899 144.526C215.52 160.928 218.406 179.813 215.138 192.046L216.104 192.304C219.457 179.753 216.482 160.593 206.761 144.02C197.027 127.425 180.486 113.353 156.64 111.082L156.545 112.078Z" fill="white"/>
<path d="M119.133 67.8775L118.928 67.4216L118.911 67.4292L118.894 67.4381L119.133 67.8775ZM216.756 67.8775L216.439 68.2642L216.756 67.8775ZM299.053 180.823L299.497 180.593L299.053 180.823ZM246.837 294.339L246.925 294.832L246.837 294.339ZM47.6185 296.041L47.5522 296.536L47.6185 296.041ZM-29.0033 160.392L-29.3685 160.05L-29.0033 160.392ZM119.338 68.3333C129.797 63.6222 147.224 57.9641 165.478 56.3145C183.743 54.6639 202.739 57.0346 216.439 68.2642L217.073 67.4908C203.075 56.0174 183.76 53.6583 165.388 55.3186C147.005 56.9798 129.469 62.6732 118.928 67.4216L119.338 68.3333ZM216.439 68.2642C250.981 96.5772 269.776 125.377 298.609 181.053L299.497 180.593C270.645 124.882 251.775 95.9351 217.073 67.4908L216.439 68.2642ZM298.609 181.053C308.107 199.394 311.632 224.684 304.536 246.836C297.451 268.952 279.77 287.977 246.75 293.847L246.925 294.832C280.311 288.896 298.29 269.609 305.488 247.141C312.674 224.71 309.104 199.145 299.497 180.593L298.609 181.053ZM246.75 293.847C170.197 307.457 102.029 302.814 47.6848 295.545L47.5522 296.536C101.95 303.812 170.232 308.466 246.925 294.832L246.75 293.847ZM47.6848 295.545C3.27338 289.605 -25.9412 266.706 -38.9832 239.917C-52.0275 213.123 -48.9144 182.418 -28.6381 160.733L-29.3685 160.05C-49.9576 182.069 -53.088 213.229 -39.8823 240.354C-26.6744 267.484 2.85465 290.558 47.5522 296.536L47.6848 295.545ZM-28.6381 160.733C-15.5093 146.693 12.1423 128.659 41.2314 111.581C70.3006 94.5135 100.73 78.4423 119.372 68.3168L118.894 67.4381C100.266 77.5561 69.8132 93.64 40.7251 110.718C11.6568 127.785 -16.1244 145.887 -29.3685 160.05L-28.6381 160.733Z" fill="white"/>
<path d="M154.324 13.957L154.144 13.4904L154.13 13.4958L154.116 13.5021L154.324 13.957ZM-60.2189 151.877L-59.8604 152.226L-60.2189 151.877ZM-57.9486 272.203L-58.3454 272.507L-57.9486 272.203ZM325.163 309.663L325.529 310.004L325.163 309.663ZM368.866 176.851L369.253 176.533L368.866 176.851ZM154.116 13.5021C113.221 32.1512 66.9449 59.0518 27.2037 85.0849C-12.5272 111.111 -45.7706 136.299 -60.5774 151.529L-59.8604 152.226C-45.1362 137.081 -11.9735 111.944 27.7516 85.9214C67.4664 59.9056 113.696 33.0334 154.531 14.4119L154.116 13.5021ZM-60.5774 151.529C-80.5788 172.102 -84.2846 196.803 -80.862 219.112C-77.4418 241.405 -66.9013 261.347 -58.3454 272.507L-57.5518 271.899C-66.0231 260.849 -76.4829 241.061 -79.8736 218.96C-83.2618 196.875 -79.5892 172.518 -59.8604 152.226L-60.5774 151.529ZM-58.3454 272.507C-40.0821 296.329 -13.8756 310.562 9.50592 319.193C32.8888 327.825 53.5036 330.874 60.5762 332.288L60.7723 331.308C53.6556 329.885 33.1419 326.853 9.85224 318.255C-13.4389 309.657 -39.4491 295.511 -57.5518 271.899L-58.3454 272.507ZM60.5762 332.288C74.7888 335.131 169.03 347.62 210.452 352.727L210.575 351.735C169.131 346.625 74.9384 334.141 60.7723 331.308L60.5762 332.288ZM210.452 352.727C252.041 357.854 293.077 344.696 325.529 310.004L324.798 309.321C292.569 343.774 251.852 356.824 210.575 351.735L210.452 352.727ZM325.529 310.004C341.992 292.405 361.479 269.511 372.582 245.81C383.688 222.103 386.456 197.464 369.253 176.533L368.48 177.168C385.331 197.67 382.706 221.843 371.677 245.386C360.645 268.935 341.253 291.731 324.798 309.321L325.529 310.004ZM369.253 176.533C352.204 155.79 329.114 128.31 308.665 103.387C288.222 78.4724 270.513 56.2273 264.292 46.048L263.439 46.5694C269.705 56.8227 287.469 79.1319 307.892 104.022C328.308 128.903 351.475 156.478 368.48 177.168L369.253 176.533ZM264.292 46.048C258.014 35.7737 246.028 21.6452 227.825 13.0789C209.603 4.5042 185.198 1.52492 154.144 13.4904L154.504 14.4235C185.316 2.55098 209.437 5.53123 227.399 13.9837C245.378 22.4446 257.231 36.4111 263.439 46.5694L264.292 46.048Z" fill="white"/>
<path d="M280.324 0.335069L280.75 0.0725264L280.324 0.335069ZM133.89 -13.8543L133.581 -14.2474L133.89 -13.8543ZM-95.4096 149.039L-95.0907 149.424L-95.4096 149.039ZM81.1053 360.178L80.9827 360.662L81.1053 360.178ZM230.377 393.097L230.44 392.601L230.377 393.097ZM323.459 357.907L323.147 357.517L323.459 357.907ZM417.11 253.473L416.689 253.203L417.11 253.473ZM395.542 129.174L395.852 128.782L395.542 129.174ZM280.75 0.0725264C272.445 -13.3871 252.155 -29.9189 225.708 -36.6164C199.229 -43.3221 166.575 -40.171 133.581 -14.2474L134.199 -13.4611C166.94 -39.1865 199.274 -42.2792 225.463 -35.6471C251.684 -29.0069 271.744 -12.6194 279.898 0.597612L280.75 0.0725264ZM133.581 -14.2474C93.8673 16.9562 48.6105 47.6829 7.24292 75.6099C-34.1121 103.528 -71.5981 128.66 -95.7287 148.654L-95.0907 149.424C-71.0077 129.47 -33.5739 104.372 7.80243 76.4387C49.1662 48.5142 94.4524 17.7683 134.199 -13.4611L133.581 -14.2474ZM-95.7287 148.654C-115.758 165.25 -122.034 188.855 -117.968 214.036C-113.905 239.2 -99.5151 265.963 -78.1821 289.003L-77.4484 288.323C-98.6833 265.39 -112.956 238.8 -116.981 213.876C-121.003 188.968 -114.791 165.748 -95.0907 149.424L-95.7287 148.654ZM-78.1821 289.003C-56.8646 312.026 -41.0589 323.887 -18.5538 333.019C3.90613 342.133 33.0488 348.531 80.9827 360.662L81.228 359.693C33.2317 347.546 4.19803 341.173 -18.1778 332.092C-40.5084 323.031 -56.1978 311.274 -77.4484 288.323L-78.1821 289.003ZM80.9827 360.662C172.926 383.932 199.063 389.615 230.314 393.593L230.44 392.601C199.259 388.632 173.179 382.965 81.228 359.693L80.9827 360.662ZM230.314 393.593C244.534 395.402 257.727 394.73 272.466 389.514C287.192 384.304 303.434 374.568 323.772 358.298L323.147 357.517C302.853 373.753 286.711 383.413 272.132 388.572C257.567 393.726 244.535 394.395 230.44 392.601L230.314 393.593ZM323.772 358.298C357.299 331.476 389.121 298.062 417.531 253.742L416.689 253.203C388.342 297.424 356.595 330.758 323.147 357.517L323.772 358.298ZM417.531 253.742C430.608 233.341 441.194 214.693 440.464 194.821C439.734 174.91 427.662 153.922 395.852 128.782L395.231 129.567C426.95 154.635 438.75 175.379 439.465 194.857C440.181 214.374 429.787 232.77 416.689 253.203L417.531 253.742ZM395.852 128.782C360.695 100.997 317.73 60.0088 280.75 0.0725264L279.898 0.597612C316.955 60.6575 360.009 101.729 395.231 129.567L395.852 128.782Z" fill="white"/>
</g>
</svg>
