<svg width="1848" height="568" viewBox="0 0 1848 568" fill="none" xmlns="http://www.w3.org/2000/svg">
<g opacity="0.05">
<path d="M1105.69 765.249L1105.21 765.12L1105.21 765.134L1105.21 765.148L1105.69 765.249ZM668.785 999.642L668.809 999.143L668.785 999.642ZM503.768 628.363L504.031 628.788L503.768 628.363ZM910.678 498.978L910.631 499.476L910.678 498.978ZM1105.21 765.148C1097.41 803.192 1073.74 865.799 1009.33 916.838C944.927 967.873 839.735 1007.39 668.809 999.143L668.761 1000.14C839.862 1008.4 945.312 968.844 1009.95 917.621C1074.59 866.402 1098.35 803.561 1106.18 765.349L1105.21 765.148ZM668.809 999.143C561.968 993.988 490.159 973.251 444.559 943.84C398.983 914.444 379.576 876.376 377.525 836.461C375.471 796.517 390.796 754.663 414.807 717.744C438.817 680.828 471.481 648.893 504.031 628.788L503.506 627.938C470.821 648.125 438.053 680.168 413.969 717.199C389.887 754.226 374.458 796.288 376.526 836.513C378.595 876.766 398.185 915.119 444.017 944.68C489.825 974.226 561.835 994.983 668.761 1000.14L668.809 999.143ZM504.031 628.788C567.821 589.389 620.268 552.393 681.394 527.568C742.491 502.755 812.259 490.107 910.631 499.476L910.726 498.48C812.208 489.097 742.276 501.763 681.018 526.642C619.789 551.508 567.226 588.581 503.506 627.938L504.031 628.788ZM910.631 499.476C988.584 506.9 1042.68 552.878 1074.57 607.243C1106.47 661.629 1116.11 724.338 1105.21 765.12L1106.18 765.378C1117.16 724.278 1107.43 661.294 1075.43 606.737C1043.42 552.158 989.065 505.941 910.726 498.48L910.631 499.476Z" fill="white"/>
<path d="M786.92 354.595L786.715 354.139L786.698 354.146L786.681 354.155L786.92 354.595ZM1109.45 354.595L1109.13 354.981L1109.45 354.595ZM1381.34 727.746L1381.78 727.516L1381.34 727.746ZM1208.83 1102.78L1208.92 1103.27L1208.83 1102.78ZM550.65 1108.4L550.584 1108.9L550.65 1108.4ZM297.507 660.244L297.142 659.903L297.507 660.244ZM787.125 355.051C821.774 339.443 879.475 320.709 939.93 315.246C1000.4 309.781 1063.52 317.6 1109.13 354.981L1109.76 354.208C1063.86 316.583 1000.41 308.776 939.84 314.25C879.255 319.725 821.446 338.494 786.715 354.139L787.125 355.051ZM1109.13 354.981C1223.43 448.673 1285.61 543.992 1380.9 727.975L1381.78 727.516C1286.48 543.497 1224.23 448.031 1109.76 354.208L1109.13 354.981ZM1380.9 727.975C1412.4 788.812 1424.1 872.683 1400.55 946.19C1377.01 1019.66 1318.25 1082.82 1208.74 1102.29L1208.92 1103.27C1318.79 1083.74 1377.85 1020.32 1401.5 946.495C1425.14 872.708 1413.4 788.563 1381.78 727.516L1380.9 727.975ZM1208.74 1102.29C955.666 1147.28 730.321 1131.93 550.716 1107.9L550.584 1108.9C730.242 1132.93 955.701 1148.29 1208.92 1103.27L1208.74 1102.29ZM550.716 1107.9C403.66 1088.24 306.779 1012.38 263.5 923.482C220.218 834.579 230.523 732.612 297.872 660.586L297.142 659.903C229.48 732.263 219.157 834.685 262.6 923.92C306.046 1013.16 403.242 1089.19 550.584 1108.9L550.716 1107.9ZM297.872 660.586C341.38 614.057 432.885 554.398 528.965 497.988C625.026 441.589 725.584 388.478 787.159 355.034L786.681 354.155C725.121 387.592 624.538 440.715 528.459 497.125C432.399 553.524 340.765 613.25 297.142 659.903L297.872 660.586Z" fill="white"/>
<path d="M903.183 176.452L903.004 175.985L902.99 175.991L902.976 175.997L903.183 176.452ZM194.377 632.113L194.735 632.461L194.377 632.113ZM201.877 1029.64L201.481 1029.95L201.877 1029.64ZM1467.6 1153.4L1467.97 1153.75L1467.6 1153.4ZM1611.99 714.62L1612.38 714.302L1611.99 714.62ZM902.976 175.997C767.935 237.578 615.101 326.42 483.835 412.408C352.579 498.389 242.842 581.546 194.018 631.764L194.735 632.461C243.476 582.328 353.132 499.222 484.383 413.244C615.623 327.273 768.41 238.46 903.391 176.907L902.976 175.997ZM194.018 631.764C128.252 699.41 116.047 780.621 127.315 854.067C138.581 927.498 173.311 993.205 201.481 1029.95L202.274 1029.34C174.189 992.707 139.539 927.154 128.303 853.916C117.07 780.693 129.242 699.827 194.735 632.461L194.018 631.764ZM201.481 1029.95C261.634 1108.41 347.989 1155.33 425.133 1183.81C502.278 1212.29 570.268 1222.34 593.686 1227.03L593.882 1226.05C570.42 1221.35 502.531 1211.32 425.479 1182.87C348.426 1154.43 262.267 1107.59 202.274 1029.34L201.481 1029.95ZM593.686 1227.03C640.588 1236.41 951.887 1277.66 1088.76 1294.54L1088.88 1293.54C951.988 1276.67 640.737 1235.42 593.882 1226.05L593.686 1227.03ZM1088.76 1294.54C1225.8 1311.43 1361.01 1268.08 1467.97 1153.75L1467.24 1153.06C1360.5 1267.16 1225.61 1310.4 1088.88 1293.54L1088.76 1294.54ZM1467.97 1153.75C1522.35 1095.61 1586.62 1020.09 1623.22 941.959C1659.83 863.824 1668.8 782.959 1612.38 714.302L1611.6 714.937C1667.68 783.166 1658.84 863.564 1622.32 941.535C1585.79 1019.51 1521.61 1094.94 1467.24 1153.06L1467.97 1153.75ZM1612.38 714.302C1556.1 645.832 1479.73 554.934 1412.2 472.642C1344.69 390.358 1286.12 316.79 1265.51 283.075L1264.66 283.596C1285.31 317.386 1343.94 391.017 1411.43 473.276C1478.92 555.528 1555.37 646.52 1611.6 714.937L1612.38 714.302ZM1265.51 283.075C1244.85 249.264 1205.41 202.773 1145.52 174.593C1085.62 146.405 1005.32 136.561 903.004 175.985L903.363 176.918C1005.44 137.587 1085.46 147.432 1145.1 175.498C1204.76 203.572 1244.07 249.901 1264.66 283.596L1265.51 283.075Z" fill="white"/>
<path d="M1319.46 131.448L1319.89 131.186L1319.46 131.448ZM835.674 84.5692L835.365 84.1762L835.674 84.5692ZM78.1136 622.737L78.4326 623.122L78.1136 622.737ZM661.284 1320.3L661.161 1320.78L661.284 1320.3ZM1154.45 1429.05L1154.51 1428.56L1154.45 1429.05ZM1461.97 1312.8L1461.66 1312.4L1461.97 1312.8ZM1771.38 967.764L1770.95 967.494L1771.38 967.764ZM1700.12 557.107L1700.43 556.715L1700.12 557.107ZM1319.89 131.186C1292.62 86.9969 1225.86 32.5456 1138.74 10.4843C1051.59 -11.5852 944.079 -1.24202 835.365 84.1762L835.983 84.9624C944.445 -0.257525 1051.64 -10.5422 1138.49 11.4537C1225.38 33.4576 1291.92 87.7646 1319.04 131.711L1319.89 131.186ZM835.365 84.1762C704.121 187.297 554.568 288.833 417.902 381.096C281.248 473.349 157.462 556.342 77.7945 622.352L78.4326 623.122C158.053 557.151 281.787 474.193 418.461 381.924C555.123 289.665 704.706 188.109 835.983 84.9624L835.365 84.1762ZM77.7945 622.352C12.0001 676.868 -8.65912 754.411 4.72295 837.288C18.1026 920.15 65.5081 1008.37 135.875 1084.37L136.609 1083.69C66.3399 1007.8 19.0509 919.75 5.71026 837.129C-7.62799 754.523 12.9666 677.365 78.4326 623.122L77.7945 622.352ZM135.875 1084.37C206.227 1160.35 258.312 1199.41 332.463 1229.5C406.569 1259.57 502.725 1280.68 661.161 1320.78L661.407 1319.81C502.908 1279.7 406.861 1258.61 332.839 1228.58C258.862 1198.56 206.894 1159.59 136.609 1083.69L135.875 1084.37ZM661.161 1320.78C964.931 1397.66 1051.22 1416.42 1154.39 1429.55L1154.51 1428.56C1051.41 1415.44 965.185 1396.69 661.407 1319.81L661.161 1320.78ZM1154.39 1429.55C1201.22 1435.51 1244.62 1433.29 1293.12 1416.13C1341.6 1398.98 1395.14 1366.9 1462.29 1313.19L1461.66 1312.4C1394.56 1366.08 1341.12 1398.09 1292.78 1415.19C1244.46 1432.29 1201.22 1434.5 1154.51 1428.56L1154.39 1429.55ZM1462.29 1313.19C1572.96 1224.64 1678.01 1114.34 1771.8 968.034L1770.95 967.494C1677.23 1113.71 1572.26 1223.93 1461.66 1312.4L1462.29 1313.19ZM1771.8 968.034C1815.03 900.596 1849.78 839.275 1847.38 774.032C1844.99 708.75 1805.42 639.691 1700.43 556.715L1699.81 557.499C1804.71 640.403 1844 709.219 1846.38 774.068C1848.77 838.956 1814.2 900.025 1770.95 967.494L1771.8 968.034ZM1700.43 556.715C1584.2 464.858 1442.15 329.345 1319.89 131.186L1319.04 131.711C1441.38 329.994 1583.52 465.59 1699.81 557.499L1700.43 556.715Z" fill="white"/>
</g>
</svg>
