<svg width="1387" height="1433" viewBox="0 0 1387 1433" fill="none" xmlns="http://www.w3.org/2000/svg">
<g opacity="0.05">
<path d="M742.305 667.789L742.788 667.918L742.792 667.904L742.795 667.89L742.305 667.789ZM1179.21 433.396L1179.19 433.895L1179.21 433.396ZM1344.23 804.675L1343.97 804.249L1344.23 804.675ZM937.322 934.06L937.369 933.562L937.322 934.06ZM742.795 667.89C750.591 629.846 774.264 567.239 838.67 516.2C903.073 465.165 1008.26 425.649 1179.19 433.895L1179.24 432.896C1008.14 424.641 902.688 464.194 838.049 515.417C773.414 566.636 749.646 629.477 741.815 667.689L742.795 667.89ZM1179.19 433.895C1286.03 439.05 1357.84 459.786 1403.44 489.198C1449.02 518.594 1468.42 556.662 1470.48 596.577C1472.53 636.521 1457.2 678.375 1433.19 715.294C1409.18 752.21 1376.52 784.145 1343.97 804.249L1344.49 805.1C1377.18 784.913 1409.95 752.87 1434.03 715.839C1458.11 678.812 1473.54 636.75 1471.47 596.525C1469.4 556.272 1449.81 517.918 1403.98 488.357C1358.17 458.811 1286.17 438.055 1179.24 432.896L1179.19 433.895ZM1343.97 804.249C1280.18 843.649 1227.73 880.645 1166.61 905.47C1105.51 930.283 1035.74 942.931 937.369 933.562L937.274 934.558C1035.79 943.941 1105.72 931.275 1166.98 906.396C1228.21 881.53 1280.77 844.457 1344.49 805.1L1343.97 804.249ZM937.369 933.562C859.416 926.138 805.321 880.16 773.431 825.795C741.529 771.409 731.892 708.7 742.788 667.918L741.822 667.66C730.841 708.76 740.567 771.744 772.569 826.301C804.584 880.88 858.935 927.097 937.274 934.558L937.369 933.562Z" fill="#333333"/>
<path d="M1061.08 1078.44L1061.29 1078.9L1061.3 1078.89L1061.32 1078.88L1061.08 1078.44ZM738.554 1078.44L738.871 1078.06L738.554 1078.44ZM466.661 705.293L466.217 705.522L466.661 705.293ZM639.171 330.259L639.084 329.766L639.171 330.259ZM1297.35 324.638L1297.42 324.142L1297.35 324.638ZM1550.49 772.794L1550.86 773.135L1550.49 772.794ZM1060.87 1077.99C1026.23 1093.6 968.525 1112.33 908.07 1117.79C847.603 1123.26 784.476 1115.44 738.871 1078.06L738.237 1078.83C784.14 1116.45 847.586 1124.26 908.16 1118.79C968.745 1113.31 1026.55 1094.54 1061.29 1078.9L1060.87 1077.99ZM738.871 1078.06C624.567 984.365 562.385 889.046 467.105 705.063L466.217 705.522C561.515 889.541 623.773 985.007 738.237 1078.83L738.871 1078.06ZM467.105 705.063C435.599 644.226 423.901 560.355 447.45 486.848C470.987 413.377 529.746 350.22 639.259 330.751L639.084 329.766C529.205 349.301 470.148 412.719 446.498 486.543C422.859 560.33 434.602 644.475 466.217 705.522L467.105 705.063ZM639.259 330.751C892.334 285.759 1117.68 301.11 1297.28 325.133L1297.42 324.142C1117.76 300.112 892.299 284.749 639.084 329.766L639.259 330.751ZM1297.28 325.133C1444.34 344.803 1541.22 420.658 1584.5 509.556C1627.78 598.459 1617.48 700.426 1550.13 772.452L1550.86 773.135C1618.52 700.775 1628.84 598.353 1585.4 509.118C1541.95 419.88 1444.76 343.85 1297.42 324.142L1297.28 325.133ZM1550.13 772.452C1506.62 818.981 1415.12 878.64 1319.03 935.05C1222.97 991.449 1122.42 1044.56 1060.84 1078L1061.32 1078.88C1122.88 1045.45 1223.46 992.323 1319.54 935.913C1415.6 879.514 1507.24 819.788 1550.86 773.135L1550.13 772.452Z" fill="#333333"/>
<path d="M944.817 1256.59L944.996 1257.05L945.01 1257.05L945.024 1257.04L944.817 1256.59ZM1653.62 800.925L1653.26 800.576L1653.62 800.925ZM1646.12 403.393L1646.52 403.089L1646.12 403.393ZM380.397 279.633L380.032 279.292L380.397 279.633ZM236.011 718.418L235.625 718.736L236.011 718.418ZM945.024 1257.04C1080.07 1195.46 1232.9 1106.62 1364.17 1020.63C1495.42 934.649 1605.16 851.492 1653.98 801.274L1653.26 800.576C1604.52 850.71 1494.87 933.816 1363.62 1019.79C1232.38 1105.76 1079.59 1194.58 944.609 1256.13L945.024 1257.04ZM1653.98 801.274C1719.75 733.628 1731.95 652.417 1720.69 578.971C1709.42 505.54 1674.69 439.833 1646.52 403.089L1645.73 403.698C1673.81 440.331 1708.46 505.884 1719.7 579.122C1730.93 652.345 1718.76 733.211 1653.26 800.576L1653.98 801.274ZM1646.52 403.089C1586.37 324.627 1500.01 277.705 1422.87 249.227C1345.72 220.748 1277.73 210.696 1254.31 206.012L1254.12 206.993C1277.58 211.685 1345.47 221.721 1422.52 250.165C1499.57 278.61 1585.73 325.445 1645.73 403.698L1646.52 403.089ZM1254.31 206.012C1207.41 196.632 896.113 155.376 759.238 138.501L759.116 139.493C896.012 156.371 1207.26 197.622 1254.12 206.993L1254.31 206.012ZM759.238 138.501C622.197 121.605 486.989 164.953 380.032 279.292L380.762 279.975C487.497 165.875 622.385 122.636 759.116 139.493L759.238 138.501ZM380.032 279.292C325.65 337.426 261.38 412.95 224.778 491.079C188.175 569.214 179.195 650.079 235.625 718.736L236.397 718.101C180.32 649.872 189.157 569.474 225.684 491.503C262.214 413.526 326.39 338.1 380.762 279.975L380.032 279.292ZM235.625 718.736C291.9 787.206 368.274 878.104 435.796 960.396C503.311 1042.68 561.882 1116.25 582.486 1149.96L583.34 1149.44C562.69 1115.65 504.064 1042.02 436.569 959.762C369.08 877.51 292.629 786.518 236.397 718.101L235.625 718.736ZM582.486 1149.96C603.148 1183.77 642.593 1230.27 702.475 1258.45C762.375 1286.63 842.68 1296.48 944.996 1257.05L944.637 1256.12C842.562 1295.45 762.541 1285.61 702.901 1257.54C643.243 1229.47 603.931 1183.14 583.34 1149.44L582.486 1149.96Z" fill="#333333"/>
<path d="M528.538 1301.59L528.112 1301.85L528.538 1301.59ZM1012.33 1348.47L1012.64 1348.86L1012.33 1348.47ZM1769.89 810.301L1769.57 809.916L1769.89 810.301ZM1186.72 112.742L1186.84 112.258L1186.72 112.742ZM693.552 3.98413L693.489 4.48013L693.552 3.98413ZM386.027 120.243L386.34 120.633L386.027 120.243ZM76.6247 465.274L77.0457 465.544L76.6247 465.274ZM147.882 875.931L147.572 876.323L147.882 875.931ZM528.112 1301.85C555.376 1346.04 622.144 1400.49 709.26 1422.55C796.408 1444.62 903.921 1434.28 1012.64 1348.86L1012.02 1348.08C903.556 1433.3 796.364 1443.58 709.506 1421.58C622.616 1399.58 556.078 1345.27 528.963 1301.33L528.112 1301.85ZM1012.64 1348.86C1143.88 1245.74 1293.43 1144.2 1430.1 1051.94C1566.75 959.689 1690.54 876.696 1770.21 810.686L1769.57 809.916C1689.95 875.887 1566.21 958.845 1429.54 1051.11C1292.88 1143.37 1143.29 1244.93 1012.02 1348.08L1012.64 1348.86ZM1770.21 810.686C1836 756.17 1856.66 678.627 1843.28 595.75C1829.9 512.888 1782.49 424.669 1712.12 348.672L1711.39 349.352C1781.66 425.242 1828.95 513.288 1842.29 595.909C1855.63 678.515 1835.03 755.673 1769.57 809.916L1770.21 810.686ZM1712.12 348.672C1641.77 272.693 1589.69 233.626 1515.54 203.536C1441.43 173.464 1345.27 152.356 1186.84 112.258L1186.59 113.227C1345.09 153.341 1441.14 174.425 1515.16 204.462C1589.14 234.482 1641.11 273.444 1711.39 349.352L1712.12 348.672ZM1186.84 112.258C883.069 35.3767 796.783 16.6181 693.615 3.48813L693.489 4.48013C796.587 17.6013 882.815 36.3441 1186.59 113.227L1186.84 112.258ZM693.615 3.48813C646.78 -2.47248 603.378 -0.254138 554.883 16.9053C506.401 34.0602 452.856 66.1386 385.715 119.852L386.34 120.633C453.438 66.9541 506.883 34.9505 555.217 17.848C603.538 0.749937 646.779 -1.46457 693.489 4.48013L693.615 3.48813ZM385.715 119.852C275.038 208.395 169.991 318.695 76.2038 465.004L77.0457 465.544C170.771 319.332 275.742 209.112 386.34 120.633L385.715 119.852ZM76.2038 465.004C32.9746 532.442 -1.77804 593.763 0.616785 659.006C3.01302 724.289 42.5831 793.348 147.572 876.323L148.192 875.539C43.2943 792.635 3.99647 723.819 1.61611 658.97C-0.765655 594.082 33.7964 533.013 77.0457 465.544L76.2038 465.004ZM147.572 876.323C263.798 968.18 405.848 1103.69 528.112 1301.85L528.963 1301.33C406.623 1103.04 264.484 967.448 148.192 875.539L147.572 876.323Z" fill="#333333"/>
</g>
</svg>
