<svg width="459" height="244" viewBox="0 0 459 244" fill="none" xmlns="http://www.w3.org/2000/svg">
<g clip-path="url(#clip0_123_2996)">
<path d="M216.789 221.539V226.822H183.257V168.143H215.866V173.425H188.857V193.796H213.723V199.15H188.857V221.539H216.789Z" fill="white"/>
<path d="M267.786 203.258V226.822H262.435V204.35C262.435 194.461 257.698 189.345 249.564 189.345C241.204 189.345 234.763 196.135 234.763 205.276V226.822H229.411V185.19H233.84L234.68 192.313C236.498 189.76 238.912 187.693 241.711 186.292C244.51 184.89 247.609 184.198 250.736 184.276C260.682 184.323 267.786 191.446 267.786 203.258Z" fill="white"/>
<path d="M322.063 207.876H284.339C285.18 216.755 291.704 222.798 300.975 222.798C307.334 222.798 312.188 220.281 315.184 215.165H320.785C319.122 219.037 316.333 222.316 312.782 224.573C309.231 226.831 305.083 227.962 300.881 227.819C288.01 227.819 278.893 218.441 278.893 206.024C278.815 203.159 279.319 200.308 280.375 197.645C281.43 194.981 283.015 192.561 285.033 190.531C287.051 188.501 289.46 186.904 292.113 185.837C294.766 184.77 297.608 184.255 300.466 184.323C313.005 184.323 322.123 193.286 322.123 205.941C322.134 206.701 322.063 207.282 322.063 207.876ZM284.434 203.127H316.617C315.693 195.079 309.761 189.214 300.478 189.214C296.546 189.111 292.718 190.486 289.747 193.07C286.776 195.653 284.876 199.258 284.422 203.175L284.434 203.127Z" fill="white"/>
<path d="M357.751 185.19V190.473H353.571C344.62 190.473 339.268 196.171 339.268 205.905V226.787H333.904V185.19H338.345L339.173 192.491C342.358 187.742 347.284 185.19 353.974 185.19H357.751Z" fill="white"/>
<path d="M406.748 185.19V221.492C406.748 235.821 398.46 243.952 384.926 243.952C374.139 243.952 366.869 238.504 364.442 230.538H370.042C372.221 235.821 377.313 238.931 385.009 238.931C394.872 238.931 401.396 233.304 401.396 222.074V218.643C399.283 221.089 396.659 223.04 393.711 224.357C390.763 225.674 387.561 226.325 384.334 226.264C371.878 226.264 362.689 217.136 362.689 205.229C362.689 193.322 371.878 184.276 384.334 184.276C387.58 184.221 390.799 184.883 393.762 186.215C396.725 187.546 399.36 189.514 401.479 191.98L402.32 185.19H406.748ZM401.645 205.229C401.645 196.171 394.706 189.298 384.843 189.298C374.98 189.298 368.041 196.088 368.041 205.229C368.041 214.37 374.897 221.326 384.843 221.326C394.789 221.326 401.645 214.417 401.645 205.276V205.229Z" fill="white"/>
<path d="M459 185.19L437.936 229.458C433.081 239.512 429.067 242.955 420.542 242.955H417.618V237.839H420.341C426.261 237.839 428.949 235.904 432.714 228.199L434.798 223.842L415.688 185.19H421.525L437.747 217.966L453.234 185.19H459Z" fill="white"/>
<path d="M203.114 86.1487V151.44H183.269V89.7101C183.149 82.0738 184.351 74.4744 186.821 67.2498C188.948 61.0397 192.325 55.3342 196.743 50.4878C200.986 45.9446 206.178 42.3977 211.947 40.1005C218.085 37.6713 224.636 36.4618 231.235 36.5391C245.507 36.5391 257.028 41.2322 265.798 50.6183C274.568 60.0045 278.953 73.043 278.953 89.7338V151.464H259.072V86.1725C259.072 77.2375 256.432 69.9723 251.151 64.377C248.609 61.6403 245.516 59.4775 242.075 58.0324C238.635 56.5874 234.928 55.8932 231.2 55.996C222.738 55.996 215.937 58.94 210.798 64.8281C205.672 70.724 202.931 78.3293 203.114 86.1487Z" fill="white"/>
<path d="M303.214 12.5118C303.187 10.8781 303.488 9.25578 304.098 7.74075C304.708 6.22572 305.615 4.8488 306.766 3.6915C307.915 2.48587 309.303 1.53458 310.84 0.898755C312.378 0.262931 314.031 -0.0433598 315.693 -0.000435206C317.328 -0.0544942 318.956 0.234361 320.473 0.847628C321.99 1.4609 323.363 2.38506 324.503 3.56092C325.651 4.74313 326.551 6.14462 327.149 7.6822C327.747 9.21978 328.031 10.8621 327.984 12.5118C328.014 14.1436 327.701 15.7634 327.067 17.2664C326.432 18.7694 325.49 20.1222 324.302 21.2371C323.156 22.3808 321.797 23.2856 320.301 23.8992C318.805 24.5128 317.202 24.8231 315.586 24.812C313.97 24.801 312.372 24.4689 310.884 23.8349C309.396 23.2009 308.049 22.2776 306.92 21.1184C305.748 20.0142 304.814 18.6807 304.177 17.2003C303.539 15.72 303.211 14.1242 303.214 12.5118ZM305.487 38.5334H325.616V151.416H305.487V38.5334Z" fill="white"/>
<path d="M-0.000359481 12.5103C-0.0267156 10.8766 0.27408 9.25425 0.884225 7.73923C1.49437 6.2242 2.40146 4.84728 3.55181 3.68998C4.7008 2.48435 6.08866 1.53306 7.6262 0.897234C9.16375 0.261411 10.817 -0.0448806 12.4796 -0.00195604C14.1181 -0.0578842 15.7503 0.230018 17.2713 0.843298C18.7924 1.45658 20.169 2.38171 21.3127 3.55939C22.4555 4.74216 23.3503 6.14259 23.9441 7.67793C24.538 9.21327 24.8188 10.8524 24.7701 12.4984C24.7997 14.1302 24.4872 15.75 23.8529 17.253C23.2186 18.756 22.2765 20.1088 21.0877 21.2237C19.9669 22.3625 18.6298 23.2644 17.1553 23.8761C15.6808 24.4879 14.099 24.7969 12.5033 24.785C10.8626 24.8083 9.23473 24.4926 7.72114 23.8574C6.20754 23.2222 4.84067 22.2812 3.70574 21.0931C2.5344 19.9934 1.60099 18.6641 0.963458 17.1876C0.325922 15.7112 -0.00213733 14.1191 -0.000359481 12.5103ZM2.22567 38.5319H22.3547V151.415H2.22567V38.5319Z" fill="white"/>
<path d="M364.086 151.417H348.03V132.197H360.297C363.734 132.252 367.146 131.606 370.326 130.298C373.608 128.797 376.458 126.49 378.615 123.591C381.593 119.592 384.063 115.238 385.967 110.627C388.836 103.814 391.292 96.8326 393.32 89.7221C398.53 72.7384 404.924 59.8503 412.502 51.0577C420.08 42.2651 428.404 37.9401 437.474 38.0825H453.968V57.0764H441.654C439.388 57.0412 437.138 57.4576 435.034 58.3012C432.931 59.1449 431.015 60.3991 429.399 61.991C425.796 65.5263 422.817 69.6487 420.589 74.1827C418.073 79.186 415.947 84.3774 414.231 89.7102C412.455 95.2501 410.876 100.244 409.495 104.692C407.411 111.245 405.181 117.39 402.805 123.128C400.644 128.504 397.673 133.517 393.995 137.99C390.572 142.114 386.319 145.467 381.515 147.831C376.056 150.347 370.093 151.574 364.086 151.417Z" fill="white"/>
<path d="M433.104 139.569C433.077 137.934 433.377 136.309 433.987 134.792C434.598 133.275 435.505 131.896 436.656 130.737C437.803 129.532 439.189 128.58 440.725 127.945C442.26 127.309 443.911 127.002 445.572 127.045C447.207 126.991 448.835 127.28 450.352 127.893C451.869 128.506 453.242 129.43 454.382 130.606C455.522 131.791 456.416 133.191 457.009 134.726C457.603 136.261 457.885 137.9 457.839 139.545C457.867 141.175 457.554 142.793 456.92 144.294C456.285 145.794 455.344 147.145 454.157 148.259C453.01 149.401 451.649 150.304 450.153 150.917C448.656 151.53 447.054 151.841 445.438 151.831C443.821 151.821 442.223 151.491 440.734 150.859C439.245 150.228 437.896 149.308 436.763 148.152C435.603 147.046 434.68 145.714 434.051 144.239C433.422 142.763 433.1 141.174 433.104 139.569Z" fill="#AACB36"/>
<path d="M102.563 36.3016C113.001 36.3159 123.237 39.1893 132.165 44.6114C140.97 49.9754 148.1 57.7073 152.743 66.9292C155.718 72.3899 157.574 78.3916 158.202 84.5816C158.573 89.9474 158.758 96.429 158.758 104.027V144.709C158.758 163.189 153.592 177.758 143.259 188.419C132.926 199.079 118.915 204.334 101.225 204.184H70.2264V184.477H101.663C113.117 184.477 122.147 181.161 128.754 174.529C135.361 167.897 138.669 158.547 138.677 146.478V95.0876C138.677 83.1689 135.334 73.5928 128.648 66.3593C121.962 59.1259 113.342 55.5131 102.788 55.521C92.2262 55.521 83.5431 59.1338 76.7388 66.3593C69.9344 73.5849 66.5006 82.9394 66.4375 94.4228C66.3637 99.9508 67.3111 105.445 69.2318 110.627C70.9618 115.284 73.6163 119.541 77.0348 123.139C80.3812 126.647 84.4116 129.427 88.8753 131.307C93.569 133.273 98.6132 134.258 103.7 134.203C110.698 134.203 124.338 133.776 124.338 133.776V152.532C124.338 152.532 109.123 153.209 101.249 153.209C90.4082 153.349 79.7987 150.063 70.925 143.819C63.1327 138.426 56.8078 131.166 52.5248 122.7C48.2377 114.056 46.0623 104.515 46.1782 94.862C46.1103 86.8802 47.5486 78.9574 50.4172 71.5114C53.012 64.5948 56.9871 58.2816 62.0993 52.9582C67.2115 47.6348 73.3532 43.4131 80.1488 40.5514C87.2304 37.5417 94.8743 36.0924 102.563 36.3016Z" fill="white"/>
</g>
<defs>
<clipPath id="clip0_123_2996">
<rect width="459" height="244" fill="white"/>
</clipPath>
</defs>
</svg>
