<svg width="225" height="45" viewBox="0 0 225 45" fill="none" xmlns="http://www.w3.org/2000/svg">
<g clip-path="url(#clip0_119_2738)">
<path d="M121.579 31.2218V33.4718H107.263V8.48267H121.183V10.7327H109.654V19.4052H120.256V21.6977H109.657V31.2283L121.579 31.2218Z" fill="#9470AF"/>
<path d="M143.356 23.4401V33.4718H141.063V23.9085C141.063 19.6934 139.029 17.5187 135.568 17.5187C131.998 17.5187 129.25 20.4074 129.25 24.2982V33.4685H126.957V15.7633H128.85L129.207 18.7993C130.671 16.6934 133.137 15.3735 136.059 15.3735C140.32 15.3735 143.356 18.4063 143.356 23.4401Z" fill="#9470AF"/>
<path d="M166.525 25.4018H150.424C150.781 29.1878 153.565 31.7686 157.538 31.7686C160.253 31.7686 162.323 30.6976 163.606 28.5229H165.997C164.465 31.8406 161.537 33.9105 157.501 33.9105C152.006 33.9105 148.115 29.9149 148.115 24.6321C148.115 19.3494 152.078 15.3865 157.325 15.3865C162.68 15.3865 166.571 19.2053 166.571 24.5961C166.561 24.8908 166.525 25.1528 166.525 25.4018ZM150.46 23.4039H164.216C163.826 19.9782 161.291 17.4793 157.338 17.4793C153.709 17.4793 150.987 19.8701 150.46 23.4039Z" fill="#9470AF"/>
<path d="M181.773 15.7629V18.0129H179.988C176.17 18.0129 173.883 20.4398 173.883 24.5828V33.4715H171.591V15.7629H173.484L173.841 18.871C175.197 16.8699 177.303 15.7629 180.159 15.7629H181.773Z" fill="#9470AF"/>
<path d="M202.689 15.763V31.2216C202.689 37.3264 199.155 40.7881 193.371 40.7881C188.766 40.7881 185.661 38.4661 184.626 35.0764H187.014C187.941 37.3264 190.119 38.6462 193.404 38.6462C197.616 38.6462 200.4 36.2554 200.4 31.4705V30.0065C199.499 31.049 198.38 31.8805 197.121 32.442C195.863 33.0035 194.497 33.2812 193.119 33.2554C187.8 33.2554 183.873 29.3646 183.873 24.2947C183.873 19.2248 187.803 15.3733 193.119 15.3733C194.507 15.3509 195.882 15.6346 197.148 16.204C198.414 16.7735 199.539 17.6147 200.442 18.6681L200.799 15.7761L202.689 15.763ZM200.511 24.2947C200.511 20.4399 197.547 17.5152 193.335 17.5152C189.123 17.5152 186.159 20.4039 186.159 24.2947C186.159 28.1855 189.087 31.1495 193.335 31.1495C197.583 31.1495 200.511 28.1855 200.511 24.2947Z" fill="#9470AF"/>
<path d="M225.007 15.7629L216.01 34.6112C213.94 38.895 212.227 40.359 208.585 40.359H207.321V38.1811H208.5C211.031 38.1811 212.174 37.3623 213.783 34.0774L214.673 32.2204L206.485 15.7629H208.958L215.885 29.7215L222.524 15.7629H225.007Z" fill="#9470AF"/>
<path d="M44.8702 18.9958V33.3735H40.4978V19.7753C40.4723 18.0914 40.7393 16.4158 41.2871 14.8233C41.757 13.4569 42.5028 12.2017 43.4782 11.1355C44.4142 10.1328 45.5607 9.3499 46.8353 8.84296C48.1898 8.30574 49.636 8.03765 51.093 8.05366C54.246 8.05366 56.7919 9.08859 58.7308 11.1585C60.6697 13.2283 61.6381 16.1017 61.6359 19.7786V33.3735H57.2504V18.9958C57.2504 17.0307 56.6664 15.4303 55.4982 14.1945C54.9377 13.5902 54.255 13.1121 53.4955 12.792C52.736 12.4718 51.917 12.3169 51.093 12.3375C49.2196 12.3375 47.7174 12.986 46.5864 14.2829C45.4437 15.5832 44.8312 17.2652 44.8702 18.9958Z" fill="#A0C51F"/>
<path d="M67.0046 2.75762C67.0003 2.39689 67.0682 2.03894 67.2043 1.70484C67.3405 1.37074 67.542 1.06725 67.7972 0.812207C68.0508 0.548294 68.3563 0.339849 68.6946 0.200045C69.0328 0.060241 69.3964 -0.00788257 69.7623 -2.05562e-05C70.1238 -0.0121184 70.4838 0.0518958 70.8189 0.187871C71.1541 0.323846 71.4569 0.528745 71.7078 0.789281C71.9605 1.04892 72.1585 1.35661 72.2901 1.69415C72.4218 2.03168 72.4844 2.39219 72.4742 2.75435C72.4805 3.11404 72.4112 3.47105 72.2707 3.80224C72.1302 4.13343 71.9217 4.4314 71.6587 4.67684C71.4123 4.92994 71.1173 5.13062 70.7915 5.26682C70.4656 5.40302 70.1155 5.47193 69.7623 5.46941C69.3998 5.47378 69.0402 5.40398 68.7057 5.2643C68.3711 5.12463 68.0686 4.91802 67.8168 4.65718C67.5588 4.41285 67.3537 4.11823 67.214 3.79152C67.0743 3.46481 67.003 3.11294 67.0046 2.75762ZM67.4959 8.49234H71.9305V33.3832H67.4959V8.49234Z" fill="#A0C51F"/>
<path d="M-0.000201018 2.75608C-0.00546565 2.3955 0.061681 2.03753 0.197263 1.70336C0.332844 1.3692 0.534104 1.06564 0.789123 0.810662C1.04209 0.545039 1.34801 0.33549 1.68709 0.195575C2.02617 0.0556599 2.39084 -0.0115024 2.75752 -0.0015654C3.11945 -0.0133078 3.47982 0.050856 3.81545 0.186796C4.15108 0.322737 4.45453 0.527442 4.70627 0.787736C4.95775 1.04808 5.15478 1.35597 5.28582 1.69339C5.41685 2.0308 5.47926 2.39097 5.46939 2.7528C5.47553 3.11217 5.40644 3.46885 5.26655 3.79993C5.12667 4.13101 4.91909 4.42918 4.65714 4.67529C4.40945 4.92729 4.11368 5.127 3.78738 5.26258C3.46107 5.39816 3.11087 5.46686 2.75752 5.46459C2.395 5.46896 2.03542 5.39916 1.70086 5.25948C1.36631 5.11981 1.06384 4.9132 0.81205 4.65236C0.555384 4.4077 0.351055 4.11347 0.211437 3.78752C0.0718197 3.46157 -0.000179965 3.11067 -0.000201018 2.75608ZM0.49108 8.49079H4.91261V33.3816H0.49108V8.49079Z" fill="#A0C51F"/>
<path d="M80.4523 33.3735H76.9053V29.1486H79.6171C80.3771 29.1611 81.1316 29.0184 81.8345 28.7294C82.5566 28.3989 83.1831 27.8907 83.6555 27.2523C84.3193 26.373 84.8695 25.4134 85.2931 24.3964C85.9292 22.8939 86.476 21.3552 86.9307 19.7883C88.0792 16.0438 89.4919 13.2053 91.1688 11.273C92.8457 9.34071 94.6853 8.38765 96.6875 8.41386H100.333V12.5831H97.6013C97.1005 12.5751 96.6031 12.6669 96.1381 12.853C95.6731 13.0391 95.2497 13.3158 94.8927 13.6671C94.0962 14.4452 93.4383 15.3534 92.9472 16.3527C92.3906 17.4553 91.9208 18.5996 91.5422 19.7752C91.1491 20.9914 90.8042 22.0918 90.5072 23.0765C90.0487 24.5219 89.5563 25.8767 89.0301 27.1409C88.5526 28.3255 87.8965 29.43 87.0846 30.416C86.327 31.3248 85.3862 32.0636 84.3236 32.5842C83.1113 33.1422 81.7863 33.4123 80.4523 33.3735Z" fill="#A0C51F"/>
<path d="M95.7048 30.7598C95.7004 30.4003 95.768 30.0436 95.9035 29.7106C96.0391 29.3776 96.2399 29.0751 96.4941 28.8209C96.7467 28.5557 97.0521 28.3464 97.3906 28.2065C97.7291 28.0666 98.0931 27.9992 98.4592 28.0087C98.8212 27.9969 99.1815 28.0611 99.5172 28.1971C99.8528 28.333 100.156 28.5377 100.408 28.798C100.659 29.0583 100.857 29.3662 100.988 29.7036C101.119 30.0411 101.181 30.4012 101.171 30.7631C101.177 31.1224 101.108 31.4791 100.968 31.8102C100.828 32.1413 100.621 32.4394 100.359 32.6855C100.106 32.9379 99.8048 33.1376 99.4738 33.273C99.1429 33.4084 98.7884 33.4769 98.4309 33.4745C98.0733 33.472 97.7198 33.3987 97.3907 33.2588C97.0616 33.1189 96.7636 32.9152 96.5138 32.6593C96.2564 32.4147 96.0518 32.12 95.9127 31.7933C95.7735 31.4666 95.7028 31.1149 95.7048 30.7598Z" fill="#A0C51F"/>
<path d="M22.6645 8.00111C24.9735 8.00058 27.2387 8.63141 29.2149 9.82534C31.1493 11.0105 32.7146 12.7118 33.7347 14.738C34.3952 15.9405 34.8062 17.2638 34.9433 18.6288C35.0263 19.8101 35.0666 21.2391 35.0645 22.916V31.8963C35.0645 35.9662 33.9236 39.1769 31.6419 41.5284C29.3601 43.8799 26.2684 45.0371 22.3665 45H15.5213V40.6572H22.4648C24.9954 40.6572 26.9911 39.9269 28.4518 38.4662C29.9126 37.0055 30.644 34.9443 30.6462 32.2828V20.9607C30.6462 18.3406 29.9071 16.2304 28.4289 14.6299C26.9507 13.0295 25.0456 12.2325 22.7137 12.2391C21.6386 12.2066 20.5689 12.4027 19.5752 12.8142C18.5816 13.2258 17.6865 13.8436 16.9493 14.6267C15.4362 16.2293 14.6807 18.2904 14.6829 20.8101C14.6651 22.029 14.8739 23.2406 15.2986 24.3832C15.6852 25.4094 16.2744 26.3473 17.0312 27.1409C17.7714 27.9143 18.6634 28.5265 19.6514 28.9389C20.6867 29.3791 21.8015 29.6021 22.9266 29.5939C24.4725 29.5939 27.4856 29.4989 27.4856 29.4989V33.6321C27.4856 33.6321 24.1253 33.7795 22.3829 33.7795C19.9886 33.8115 17.6451 33.0884 15.6851 31.7129C13.9548 30.5228 12.5515 28.9168 11.6042 27.0426C10.6565 25.138 10.1749 23.0355 10.1991 20.9083C10.1844 19.1485 10.5022 17.4017 11.1358 15.7598C11.711 14.2356 12.5909 12.8445 13.7216 11.6716C14.8523 10.4987 16.2102 9.56847 17.7124 8.93779C19.2763 8.2723 20.9656 7.95278 22.6645 8.00111Z" fill="#A0C51F"/>
</g>
<defs>
<clipPath id="clip0_119_2738">
<rect width="225" height="45" fill="white"/>
</clipPath>
</defs>
</svg>
