<svg width="1920" height="651" viewBox="0 0 1920 651" fill="none" xmlns="http://www.w3.org/2000/svg">
<g clip-path="url(#clip0_355_2692)">
<rect width="1920" height="651" fill="#9470AF"/>
<rect x="753" y="498" width="27" height="29" fill="#B690D2"/>
<rect x="793" y="476" width="115" height="51" fill="#B690D2"/>
<rect x="955" y="475.651" width="148" height="51.3488" fill="#B690D2"/>
<rect x="1054" y="453.186" width="148" height="73.814" fill="#B690D2"/>
<rect x="955" y="435" width="20" height="92" fill="#B690D2"/>
<rect x="989" y="435" width="20" height="92" fill="#B690D2"/>
<rect x="1021" y="435" width="20" height="92" fill="#B690D2"/>
<rect x="388" y="453" width="141" height="74" fill="#B690D2"/>
<rect x="407" y="422" width="20" height="92" fill="#B690D2"/>
<rect x="439" y="422" width="20" height="92" fill="#B690D2"/>
<rect x="553" y="476" width="135" height="51" fill="#B690D2"/>
<rect x="639" y="435" width="90" height="92" fill="#B690D2"/>
<rect x="586" y="435" width="20" height="92" fill="#B690D2"/>
<rect x="695" y="398" width="20" height="92" fill="#B690D2"/>
<rect x="660" y="398" width="20" height="92" fill="#B690D2"/>
<rect x="1244" y="476" width="220" height="51" fill="#B690D2"/>
<rect x="1330" y="435" width="90" height="92" fill="#B690D2"/>
<rect x="1277" y="435" width="20" height="92" fill="#B690D2"/>
<rect x="1386" y="398" width="20" height="92" fill="#B690D2"/>
<rect x="1351" y="398" width="20" height="92" fill="#B690D2"/>
<rect y="521" width="1920" height="260" rx="2" fill="#8863A4"/>
<rect y="549" width="1920" height="204" rx="2" fill="#7C5798"/>
<rect y="592" width="1920" height="118" rx="2" fill="#6D4B87"/>
<rect x="969" y="521" width="6" height="98" fill="#5F3E78"/>
<rect x="767" y="521" width="6" height="51" fill="#5F3E78"/>
<rect x="767" y="539" width="6" height="6" fill="#44245C"/>
<rect x="767" y="552" width="6" height="6" fill="#44245C"/>
<rect x="621" y="521" width="6" height="51" fill="#5F3E78"/>
<rect x="644" y="521" width="6" height="51" fill="#5F3E78"/>
<rect x="1313" y="521" width="6" height="98" fill="#5F3E78"/>
<rect x="993" y="521" width="6" height="98" fill="#5F3E78"/>
<rect x="877" y="521" width="6" height="77" fill="#5F3E78"/>
<rect x="464" y="521" width="6" height="77" fill="#5F3E78"/>
<rect x="1319" y="613" width="6.00002" height="349" transform="rotate(90 1319 613)" fill="#5F3E78"/>
<rect x="970" y="572" width="6.00002" height="349" transform="rotate(90 970 572)" fill="#5F3E78"/>
<rect x="883" y="592" width="6.00002" height="419" transform="rotate(90 883 592)" fill="#5F3E78"/>
<rect x="784" y="572" width="6" height="6" fill="#44245C"/>
<rect x="833" y="572" width="6" height="6" fill="#44245C"/>
<rect x="845" y="572" width="6" height="6" fill="#44245C"/>
<rect x="1112" y="613" width="6" height="6" fill="#44245C"/>
<rect x="1128" y="613" width="6" height="6" fill="#44245C"/>
<rect x="1277" y="613" width="6" height="6" fill="#44245C"/>
<rect x="1313" y="613" width="6" height="6" fill="#44245C"/>
<rect x="1313" y="597" width="6" height="6" fill="#44245C"/>
<rect x="1313" y="554" width="6" height="6" fill="#44245C"/>
<rect x="1313" y="535" width="6" height="6" fill="#44245C"/>
<rect x="969" y="572" width="6" height="6" fill="#44245C"/>
<rect x="969" y="558" width="6" height="6" fill="#44245C"/>
<rect x="993" y="592" width="6" height="6" fill="#44245C"/>
<rect x="1017" y="613" width="6" height="6" fill="#44245C"/>
<rect x="861" y="592" width="6" height="6" fill="#44245C"/>
<rect x="726" y="592" width="6" height="6" fill="#44245C"/>
<rect x="709" y="592" width="6" height="6" fill="#44245C"/>
<rect x="574" y="592" width="6" height="6" fill="#44245C"/>
<rect x="553" y="592" width="6" height="6" fill="#44245C"/>
<rect x="464" y="592" width="6" height="6" fill="#44245C"/>
<rect x="464" y="578" width="6" height="6" fill="#44245C"/>
<rect x="464" y="566" width="6" height="6" fill="#44245C"/>
<rect x="586" y="592" width="6" height="6" fill="#44245C"/>
</g>
<defs>
<clipPath id="clip0_355_2692">
<rect width="1920" height="651" fill="white"/>
</clipPath>
</defs>
</svg>
