<svg width="320" height="355" fill="none" xmlns="http://www.w3.org/2000/svg"><g opacity=".05" fill="#fff"><path d="M215.621 192.175l-.483-.129-.004.014-.003.015.49.1zM83.376 263.122l.024-.5-.024.5zm-49.948-112.38l.263.426-.263-.426zm123.165-39.162l-.048.498.048-.498zm58.538 80.495c-2.348 11.456-9.48 30.325-28.895 45.71-19.411 15.382-51.161 27.33-102.836 24.837l-.048.999c51.85 2.502 83.858-9.483 103.505-25.052 19.644-15.567 26.871-34.669 29.253-46.294l-.979-.2zm-131.73 70.547c-32.31-1.558-53.976-7.828-67.705-16.684-13.706-8.84-19.516-20.262-20.131-32.226-.617-11.993 3.986-24.589 11.229-35.726 7.24-11.133 17.091-20.762 26.897-26.818l-.525-.851c-9.94 6.139-19.895 15.876-27.21 27.124-7.314 11.246-12.02 24.05-11.39 36.322.633 12.302 6.626 24.011 20.588 33.016 13.938 8.99 35.804 15.279 68.198 16.842l.048-.999zM33.69 151.168c19.332-11.941 35.167-23.112 53.633-30.611 18.436-7.488 39.497-11.31 69.221-8.479l.095-.996c-29.871-2.845-51.094.995-69.693 8.548-18.568 7.541-34.519 18.789-53.781 30.687l.525.851zm122.854-39.09c23.461 2.234 39.745 16.067 49.354 32.448 9.621 16.402 12.507 35.287 9.239 47.52l.966.258c3.353-12.551.378-31.711-9.343-48.284-9.734-16.595-26.275-30.667-50.121-32.938l-.095.996z"/><path d="M119.133 67.877l-.205-.455-.017.007-.017.01.239.439zm97.623 0l-.317.387.317-.386zm82.297 112.946l.444-.23-.444.23zm-52.216 113.516l.088.493-.088-.493zm-199.219 1.702l-.066.495.066-.495zm-76.621-135.649l-.366-.342.366.342zm148.341-92.059c10.459-4.71 27.886-10.369 46.14-12.018 18.265-1.651 37.261.72 50.961 11.95l.634-.774c-13.998-11.474-33.313-13.833-51.685-12.172-18.383 1.66-35.919 7.354-46.46 12.103l.41.911zm97.101-.069c34.542 28.313 53.337 57.113 82.17 112.789l.888-.46c-28.852-55.711-47.722-84.658-82.424-113.102l-.634.773zm82.17 112.789c9.498 18.341 13.023 43.631 5.927 65.783-7.085 22.116-24.766 41.141-57.786 47.011l.175.985c33.386-5.936 51.365-25.223 58.563-47.691 7.186-22.431 3.616-47.996-5.991-66.548l-.888.46zM246.75 293.847c-76.553 13.61-144.721 8.967-199.065 1.698l-.133.991c54.398 7.276 122.68 11.93 199.373-1.704l-.175-.985zm-199.065 1.698c-44.412-5.94-73.626-28.839-86.668-55.628-13.045-26.794-9.931-57.499 10.345-79.184l-.73-.683c-20.59 22.019-23.72 53.179-10.514 80.304 13.208 27.13 42.737 50.204 87.434 56.182l.133-.991zm-76.323-134.812c13.129-14.04 40.78-32.074 69.87-49.152 29.069-17.068 59.498-33.139 78.14-43.264l-.478-.879c-18.628 10.118-49.08 26.202-78.169 43.28-29.068 17.067-56.85 35.169-70.094 49.332l.73.683zM154.324 13.957l-.18-.467-.014.006-.014.006.208.455zm-214.543 137.92l.359.349-.359-.349zm2.27 120.326l-.396.304.396-.304zm383.112 37.46l.366.341-.366-.341zm43.703-132.812l.387-.318-.387.318zM154.116 13.502c-40.895 18.65-87.171 45.55-126.912 71.583-39.731 26.026-72.975 51.214-87.781 66.444l.717.697c14.724-15.145 47.886-40.282 87.612-66.305 39.714-26.015 85.944-52.888 126.779-71.51l-.415-.909zM-60.577 151.53c-20.002 20.573-23.708 45.274-20.285 67.583 3.42 22.293 13.96 42.235 22.517 53.395l.793-.608c-8.471-11.05-18.93-30.838-22.322-52.939-3.388-22.085.285-46.442 20.014-66.734l-.717-.697zm2.232 120.978c18.263 23.822 44.47 38.055 67.85 46.686 23.384 8.632 43.999 11.681 51.071 13.095l.196-.98c-7.116-1.423-27.63-4.455-50.92-13.053-23.29-8.598-49.301-22.744-67.404-46.356l-.793.608zm118.921 59.781c14.213 2.843 108.454 15.332 149.876 20.439l.123-.992c-41.444-5.11-135.637-17.594-149.803-20.427l-.196.98zm149.876 20.439c41.589 5.127 82.625-8.031 115.077-42.723l-.731-.683c-32.229 34.453-72.946 47.503-114.223 42.414l-.123.992zm115.077-42.723c16.463-17.599 35.95-40.493 47.053-64.194 11.106-23.707 13.874-48.346-3.329-69.277l-.773.635c16.851 20.502 14.226 44.675 3.197 68.218-11.032 23.549-30.424 46.345-46.879 63.935l.731.683zm43.724-133.471c-17.049-20.743-40.139-48.223-60.588-73.146-20.443-24.915-38.152-47.16-44.373-57.339l-.853.521c6.266 10.254 24.03 32.563 44.453 57.453 20.416 24.881 43.583 52.456 60.588 73.146l.773-.635zM264.292 46.048c-6.278-10.274-18.264-24.403-36.467-32.97-18.222-8.574-42.627-11.553-73.681.412l.36.934c30.812-11.873 54.933-8.893 72.895-.44 17.979 8.46 29.832 22.427 36.04 32.585l.853-.521zM280.324.335l.426-.262-.426.262zM133.89-13.855l-.309-.392.309.393zM-95.41 149.04l.32.385-.32-.385zM81.105 360.178l-.122.484.122-.484zm149.272 32.919l.063-.496-.063.496zm93.082-35.19l-.312-.39.312.39zm93.651-104.434l-.421-.27.421.27zm-21.568-124.299l.31-.392-.31.392zM280.75.073c-8.305-13.46-28.595-29.992-55.042-36.69-26.479-6.705-59.133-3.554-92.127 22.37l.618.786c32.741-25.726 65.075-28.818 91.264-22.186 26.221 6.64 46.281 23.028 54.435 36.245l.852-.525zm-147.169-14.32C93.867 16.956 48.611 47.683 7.243 75.61c-41.355 27.918-78.841 53.05-102.972 73.044l.638.77c24.083-19.954 61.517-45.052 102.893-72.985 41.364-27.925 86.65-58.67 126.397-89.9l-.618-.786zm-229.31 162.901c-20.029 16.596-26.305 40.201-22.239 65.382 4.063 25.164 18.453 51.927 39.786 74.967l.734-.68c-21.235-22.933-35.508-49.523-39.533-74.447-4.022-24.908 2.19-48.128 21.89-64.452l-.638-.77zm17.547 140.349c21.317 23.023 37.123 34.884 59.628 44.016 22.46 9.114 51.603 15.512 99.537 27.643l.245-.969c-47.996-12.147-77.03-18.52-99.406-27.601-22.33-9.061-38.02-20.818-59.27-43.769l-.734.68zm159.165 71.659c91.943 23.27 118.08 28.953 149.331 32.931l.126-.992c-31.181-3.969-57.261-9.636-149.212-32.908l-.245.969zm149.331 32.931c14.22 1.809 27.413 1.137 42.152-4.079 14.726-5.21 30.968-14.946 51.306-31.216l-.625-.781c-20.294 16.236-36.436 25.896-51.015 31.055-14.565 5.154-27.597 5.823-41.692 4.029l-.126.992zm93.458-35.295c33.527-26.822 65.349-60.236 93.759-104.556l-.842-.539c-28.347 44.221-60.094 77.555-93.542 104.314l.625.781zm93.759-104.556c13.077-20.401 23.663-39.049 22.933-58.921-.73-19.911-12.802-40.899-44.612-66.039l-.621.785c31.719 25.068 43.519 45.812 44.234 65.29.716 19.517-9.678 37.913-22.776 58.346l.842.539zm-21.679-124.96C360.695 100.997 317.73 60.009 280.75.072l-.852.526c37.057 60.06 80.111 101.131 115.333 128.969l.621-.785z"/></g></svg>