<svg width="1848" height="568" fill="none" xmlns="http://www.w3.org/2000/svg"><g opacity=".05" fill="#fff"><path d="M1105.69 765.249l-.48-.129v.028l.48.101zM668.785 999.642l.024-.499-.024.499zM503.768 628.363l.263.425-.263-.425zm406.91-129.385l-.047.498.047-.498zm194.532 266.17c-7.8 38.044-31.47 100.651-95.88 151.69-64.403 51.035-169.595 90.552-340.521 82.305l-.048.997c171.101 8.26 276.551-31.296 341.189-82.519 64.64-51.219 88.4-114.06 96.23-152.272l-.97-.201zM668.809 999.143c-106.841-5.155-178.65-25.892-224.25-55.303-45.576-29.396-64.983-67.464-67.034-107.379-2.054-39.944 13.271-81.798 37.282-118.717 24.01-36.916 56.674-68.851 89.224-88.956l-.525-.85c-32.685 20.187-65.453 52.23-89.537 89.261-24.082 37.027-39.511 79.089-37.443 119.314 2.069 40.253 21.659 78.606 67.491 108.167 45.808 29.546 117.818 50.303 224.744 55.46l.048-.997zM504.031 628.788c63.79-39.399 116.237-76.395 177.363-101.22 61.097-24.813 130.865-37.461 229.237-28.092l.095-.996c-98.518-9.383-168.45 3.283-229.708 28.162-61.229 24.866-113.792 61.939-177.512 101.296l.525.85zm406.6-129.312c77.953 7.424 132.049 53.402 163.939 107.767 31.9 54.386 41.54 117.095 30.64 157.877l.97.258c10.98-41.1 1.25-104.084-30.75-158.641-32.01-54.579-86.365-100.796-164.704-108.257l-.095.996z"/><path d="M786.92 354.595l-.205-.456-.017.007-.017.009.239.44zm322.53 0l-.32.386.32-.386zm271.89 373.151l.44-.23-.44.23zm-172.51 375.034l.09.49-.09-.49zm-658.18 5.62l-.066.5.066-.5zM297.507 660.244l-.365-.341.365.341zm489.618-305.193c34.649-15.608 92.35-34.342 152.805-39.805 60.47-5.465 123.59 2.354 169.2 39.735l.63-.773c-45.9-37.625-109.35-45.432-169.92-39.958-60.585 5.475-118.394 24.244-153.125 39.889l.41.912zm322.005-.07c114.3 93.692 176.48 189.011 271.77 372.994l.88-.459c-95.3-184.019-157.55-279.485-272.02-373.308l-.63.773zm271.77 372.994c31.5 60.837 43.2 144.708 19.65 218.215-23.54 73.47-82.3 136.63-191.81 156.1l.18.98c109.87-19.53 168.93-82.95 192.58-156.775 23.64-73.787 11.9-157.932-19.72-218.979l-.88.459zm-172.16 374.315c-253.074 44.99-478.419 29.64-658.024 5.61l-.132 1c179.658 24.03 405.117 39.39 658.336-5.63l-.18-.98zm-658.024 5.61c-147.056-19.66-243.937-95.52-287.216-184.418-43.282-88.903-32.977-190.87 34.372-262.896l-.73-.683c-67.662 72.36-77.985 174.782-34.542 264.017 43.446 89.24 140.642 165.27 287.984 184.98l.132-1zM297.872 660.586c43.508-46.529 135.013-106.188 231.093-162.598 96.061-56.399 196.619-109.51 258.194-142.954l-.478-.879c-61.56 33.437-162.143 86.56-258.222 142.97-96.06 56.399-187.694 116.125-231.317 162.778l.73.683zm605.311-484.134l-.179-.467-.014.006-.014.006.207.455zM194.377 632.113l.358.348-.358-.348zm7.5 397.527l-.396.31.396-.31zM1467.6 1153.4l.37.35-.37-.35zm144.39-438.78l.39-.318-.39.318zM902.976 175.997C767.935 237.578 615.101 326.42 483.835 412.408c-131.256 85.981-240.993 169.138-289.817 219.356l.717.697c48.741-50.133 158.397-133.239 289.648-219.217 131.24-85.971 284.027-174.784 419.008-236.337l-.415-.91zM194.018 631.764c-65.766 67.646-77.971 148.857-66.703 222.303 11.266 73.431 45.996 139.138 74.166 175.883l.793-.61c-28.085-36.633-62.735-102.186-73.971-175.424-11.233-73.223.939-154.089 66.432-221.455l-.717-.697zm7.463 398.186c60.153 78.46 146.508 125.38 223.652 153.86 77.145 28.48 145.135 38.53 168.553 43.22l.196-.98c-23.462-4.7-91.351-14.73-168.403-43.18-77.053-28.44-163.212-75.28-223.205-153.53l-.793.61zm392.205 197.08c46.902 9.38 358.201 50.63 495.074 67.51l.12-1c-136.892-16.87-448.143-58.12-494.998-67.49l-.196.98zm495.074 67.51c137.04 16.89 272.25-26.46 379.21-140.79l-.73-.69c-106.74 114.1-241.63 157.34-378.36 140.48l-.12 1zm379.21-140.79c54.38-58.14 118.65-133.66 155.25-211.791 36.61-78.135 45.58-159-10.84-227.657l-.78.635c56.08 68.229 47.24 148.627 10.72 226.598-36.53 77.975-100.71 153.405-155.08 211.525l.73.69zm144.41-439.448c-56.28-68.47-132.65-159.368-200.18-241.66-67.51-82.284-126.08-155.852-146.69-189.567l-.85.521c20.65 33.79 79.28 107.421 146.77 189.68 67.49 82.252 143.94 173.244 200.17 241.661l.78-.635zm-346.87-431.227c-20.66-33.811-60.1-80.302-119.99-108.482-59.9-28.188-140.2-38.032-242.516 1.392l.359.933c102.077-39.331 182.097-29.486 241.737-1.42 59.66 28.074 98.97 74.403 119.56 108.098l.85-.521zm53.95-151.627l.43-.262-.43.262zM835.674 84.569l-.309-.393.309.393zM78.114 622.737l.319.385-.32-.385zm583.17 697.563l-.123.48.123-.48zm493.166 108.75l.06-.49-.06.49zm307.52-116.25l-.31-.4.31.4zm309.41-345.036l-.43-.27.43.27zm-71.26-410.657l.31-.392-.31.392zm-380.23-425.921c-27.27-44.19-94.03-98.64-181.15-120.702-87.15-22.07-194.661-11.726-303.375 73.692l.618.786C944.445-.258 1051.64-10.542 1138.49 11.454c86.89 22.004 153.43 76.31 180.55 120.257l.85-.525zm-484.525-47.01c-131.244 103.121-280.797 204.657-417.463 296.92-136.654 92.253-260.44 175.246-340.107 241.256l.638.77c79.62-65.971 203.354-148.929 340.028-241.198 136.662-92.259 286.245-193.815 417.522-296.962l-.618-.786zM77.795 622.352C12 676.868-8.66 754.411 4.722 837.288c13.38 82.862 60.785 171.082 131.152 247.082l.734-.68C66.339 1007.8 19.051 919.75 5.71 837.129c-13.338-82.606 7.257-159.764 72.723-214.007l-.639-.77zm58.08 462.018c70.352 75.98 122.437 115.04 196.588 145.13 74.106 30.07 170.262 51.18 328.698 91.28l.246-.97c-158.499-40.11-254.546-61.2-328.568-91.23-73.977-30.02-125.945-68.99-196.23-144.89l-.734.68zm525.286 236.41c303.77 76.88 390.059 95.64 493.229 108.77l.12-.99c-103.1-13.12-189.325-31.87-493.103-108.75l-.246.97zm493.229 108.77c46.83 5.96 90.23 3.74 138.73-13.42 48.48-17.15 102.02-49.23 169.17-102.94l-.63-.79c-67.1 53.68-120.54 85.69-168.88 102.79-48.32 17.1-91.56 19.31-138.27 13.37l-.12.99zm307.9-116.36c110.67-88.55 215.72-198.85 309.51-345.156l-.85-.54c-93.72 146.216-198.69 256.436-309.29 344.906l.63.79zm309.51-345.156c43.23-67.438 77.98-128.759 75.58-194.002-2.39-65.282-41.96-134.341-146.95-217.317l-.62.784c104.9 82.904 144.19 151.72 146.57 216.569 2.39 64.888-32.18 125.957-75.43 193.426l.85.54zm-71.37-411.319c-116.23-91.857-258.28-227.37-380.54-425.529l-.85.525c122.34 198.283 264.48 333.879 380.77 425.788l.62-.784z"/></g></svg>