<svg width="142" height="106" fill="none" xmlns="http://www.w3.org/2000/svg"><path d="M6.858 49.686c4.118 3.644 9.724 6.163 15.885 7.158v-12.31c0-.78.631-1.411 1.41-1.411h1.412V14.902H.167v21.212c0 4.932 2.376 9.752 6.691 13.572z" fill="#fff"/><path d="M25.565 57.028l16.932.282V45.945H25.565v11.083z" fill="#A584BD"/><path d="M22.743 72.755V59.697C15.883 58.67 9.602 55.883 4.988 51.8c-1.976-1.75-3.59-3.695-4.821-5.766v59.175h25.398V74.165h-1.411a1.41 1.41 0 01-1.411-1.41z" fill="#fff"/><path d="M42.497 60.132l-16.932-.282v11.494h16.932V60.132z" fill="#A584BD"/><path d="M39.675 74.165H28.387v31.043h11.288V74.165zm0-59.263H28.387v28.221h11.288v-28.22zm73.373 0H101.76v28.221h11.288v-28.22z" fill="#fff"/><path d="M98.939 57.311l16.932-.171V45.945H98.939v11.366z" fill="#A584BD"/><path d="M96.116.792H45.32V12.08h50.797V.792zM45.32 44.534v12.793h50.796V44.534c0-.78.632-1.411 1.411-1.411h1.411V14.902h-56.44v28.22h1.41c.78.001 1.411.633 1.411 1.412z" fill="#fff"/><path d="M115.871 59.965l-16.932.168v11.21h16.931V59.966z" fill="#A584BD"/><path d="M137.597 51.266c-4.397 4.126-10.521 7.058-17.246 8.258-.547.097-1.101.18-1.658.256v12.974a1.41 1.41 0 01-1.411 1.411h-1.411v31.043h25.963V46.04c-1.108 1.863-2.529 3.623-4.237 5.226z" fill="#fff"/><path d="M115.871 14.902v28.221h1.411c.779 0 1.411.632 1.411 1.411v12.397a36.02 36.02 0 001.163-.185c12.735-2.272 21.977-10.948 21.977-20.631V14.902h-25.962zm-2.823 59.263H101.76v31.043h11.288V74.165zm-16.932-1.411V60.15H45.32v12.605a1.41 1.41 0 01-1.41 1.411h-1.412v31.043h56.441V74.165h-1.41c-.78 0-1.412-.632-1.412-1.41zM60.84 86.864h-5.644v-5.643h5.644v5.644zm8.467 0h-5.645v-5.643h5.645v5.644zm8.466 0H72.13v-5.643h5.644v5.644zm8.466 0h-5.644v-5.643h5.644v5.644z" fill="#fff"/></svg>