<svg width="136" height="124" fill="none" xmlns="http://www.w3.org/2000/svg"><path fill-rule="evenodd" clip-rule="evenodd" d="M.464 123.316h135.073V71.92H.464v51.396zm102.054-31.494c2.07 0 4.072.627 5.754 1.784a10.138 10.138 0 015.754-1.784c5.585 0 10.13 4.527 10.13 10.091 0 5.563-4.545 10.089-10.13 10.089-2.07 0-4.072-.627-5.754-1.784a10.149 10.149 0 01-5.754 1.784c-5.585 0-10.13-4.526-10.13-10.089 0-5.564 4.545-10.091 10.13-10.091zm-64.234-8.588H68a1.501 1.501 0 110 3.002H38.284a1.501 1.501 0 010-3.002zm-24.938 0h14.383a1.501 1.501 0 010 3.002H13.346a1.501 1.501 0 010-3.002zm0 10.089h66.16a1.501 1.501 0 010 3.001h-66.16a1.501 1.501 0 010-3.001zm58.824-64.49l53.727.003L23.327.684l-7.995 28.15H44.58l27.59-.002z" fill="#fff"/><path fill-rule="evenodd" clip-rule="evenodd" d="M.464 51.882v17.036h135.073V51.88H63.472c-18.314-.001-37.464 0-63.008.002zM102.518 109a7.137 7.137 0 004.756-1.808 1.5 1.5 0 011.997.001 7.137 7.137 0 004.755 1.807c3.93 0 7.129-3.18 7.129-7.087 0-3.91-3.198-7.09-7.129-7.09a7.13 7.13 0 00-4.754 1.807 1.501 1.501 0 01-1.998 0 7.137 7.137 0 00-4.756-1.807c-3.93 0-7.127 3.18-7.127 7.09 0 3.908 3.197 7.087 7.127 7.087z" fill="#36ABCC"/><path fill-rule="evenodd" clip-rule="evenodd" d="M135.366 31.837H44.762c-13.017.003-27.229.008-44.298.016V48.88l63.008-.003 72.065.002V31.838h-.171zM21.976 43.151H16.22v-5.726h5.754v5.726zm11.505 0h-5.753v-5.726h5.753v5.726zm11.507 0h-5.754v-5.726h5.754v5.726zm11.506 0H50.74v-5.726h5.753v5.726z" fill="#fff"/></svg>