<svg width="165" height="143" fill="none" xmlns="http://www.w3.org/2000/svg"><path d="M2.233 76.11h148.594v-9.526H2.233v9.528zm99.522 2.347v54.141h41.781V78.456h-41.781zm33.372 33.36h-26.251l.001-25.157h26.252l-.002 25.157z" fill="#fff"/><path d="M151.351 78.457H145.7v54.141h15.859l-3.646-97.345h-13.307l-1.093 29.168h9.48v14.035h-1.642z" fill="#fff"/><path d="M68.042 24.315c3.646 1.64 9.297-.182 12.579-4.01 10.391-12.396 20.053-9.48 28.984-4.558 6.563 3.646 12.76 1.459 18.958-.728 2.734-.912 5.286-1.824 7.838-2.188 8.386-1.458 11.849 8.387 12.944 12.396h4.739c-.365-8.386-2.917-14.22-7.291-16.953-3.829-2.37-8.386-2.005-11.302-.728-10.027 4.557-21.146 3.28-33.36-4.011-7.474-4.557-18.411-4.74-27.344-.365-6.016 2.917-9.662 7.291-10.392 12.214-.363 4.374.73 7.656 3.647 8.932z" fill="#A584BD"/><path d="M141.689 32.907h19.325V27.39h-19.325v5.517zm-91.682 99.509v-53.96H8.967v54.142h41.04v-.182zM16.27 86.659h26.251v25.157H16.27l.002-25.157zm147.271 48.22H.751v8.046H165v-8.046h-1.46.001zm-64.132-2.463v-53.96H52.171v54.142h47.238v-.182zM62.756 86.708s.912-.049 1.823-.049h24.429v25.157H62.755V86.708z" fill="#fff"/></svg>