<svg width="320" height="117" fill="none" xmlns="http://www.w3.org/2000/svg"><g clip-path="url(#clip0_392_3977)"><path fill="#9470AF" d="M0 0h320v117H0z"/><path fill="#B690D2" d="M102.06 46.258h12.484v13.409H102.06zm18.495-10.172h53.172v23.581h-53.172zm74.903-.161h68.43v23.742h-68.43z"/><path fill="#B690D2" d="M241 26h67v34h-67zm-45.542-8.871h9.247v42.538h-9.247zm15.72 0h9.247v42.538h-9.247zm14.796 0h9.247v42.538h-9.247zM12 36h60v24H12z"/><path fill="#B690D2" d="M49.35 17.129h41.613v42.538H49.35zm-24.505 0h9.247v42.538h-9.247z"/><path fill="#B690D2" d="M75.243.021h9.247v42.538h-9.247zm-16.183 0h9.247v42.538H59.06z"/><rect x="-246.101" y="56.892" width="887.742" height="120.215" rx=".925" fill="#8863A4"/><rect x="-246.101" y="69.839" width="887.742" height="94.323" rx=".925" fill="#7C5798"/><rect x="-246.101" y="89.72" width="887.742" height="54.559" rx=".925" fill="#6D4B87"/><path fill="#5F3E78" d="M201.931 56.892h2.774v45.312h-2.774zm-93.398 0h2.774v23.581h-2.774z"/><path fill="#44245C" d="M108.533 65.215h2.774v2.774h-2.774zm0 6.011h2.774V74h-2.774z"/><path fill="#5F3E78" d="M41.028 56.892h2.774v23.581h-2.774zm10.634 0h2.774v23.581h-2.774zm161.366 0h2.774v45.312h-2.774zm-53.635 0h2.774v35.602h-2.774z"/><path fill="#5F3E78" d="M363.759 99.43v2.774H202.393V99.43zM202.393 80.473v2.774H41.027v-2.774zm-40.226 9.247v2.774h-193.73V89.72z"/><path fill="#44245C" d="M116.393 80.473h2.774v2.774h-2.774zm22.656 0h2.774v2.774h-2.774zm5.549 0h2.774v2.774h-2.774zM268.049 99.43h2.774v2.774h-2.774zm7.398 0h2.774v2.774h-2.774zm-73.516-18.957h2.774v2.774h-2.774zm0-6.473h2.774v2.774h-2.774zm11.097 15.72h2.774v2.774h-2.774zm11.097 9.71h2.774v2.774h-2.774zm-72.13-9.71h2.774v2.774h-2.774zm-62.419 0h2.774v2.774h-2.774zm-7.86 0h2.774v2.774h-2.774zm-62.42 0h2.774v2.774h-2.774zm-9.709 0h2.774v2.774H9.587zm15.258 0h2.774v2.774h-2.774z"/></g><defs><clipPath id="clip0_392_3977"><path fill="#fff" d="M0 0h320v117H0z"/></clipPath></defs></svg>