<svg width="320" height="231" fill="none" xmlns="http://www.w3.org/2000/svg"><g clip-path="url(#clip0_392_4044)"><path fill="#36ABCC" d="M0 0h320v231H0z"/><rect x="-523.461" y="100.385" width="964.174" height="130.565" rx="1.004" fill="#009BC7"/><rect x="-523.461" y="114.446" width="964.174" height="102.443" rx="1.004" fill="#008AB0"/><rect x="-523.461" y="136.039" width="964.174" height="59.257" rx="1.004" fill="#007DA0"/><rect x="-523.461" y="165.667" width="964.174" height="15.065" rx="1.004" fill="#008AB0"/><path fill="#74E0FF" d="M119.322 80.8h128.557v19.585H119.322z"/><path fill="#74E0FF" d="M232.311 47.657h15.567v33.144h-15.567zm-23.1 0h15.567v33.144h-15.567zm-44.694 6.528h39.17V80.8h-39.17zM61.07 134.03h22.096v69.3H61.07z"/><path fill="#007DA0" d="M65.087 141.563h14.061v6.026H65.087zm0 8.035h14.061v14.563H65.087zm0 16.571h14.061v14.061H65.087zm0 16.07h14.061v14.563H65.087z"/><path fill="#74E0FF" d="M79.07 6.295l3.102-1.654 41.345 77.517-3.101 1.655zm-7.957-.319h2.009v130.063h-2.009z"/><path fill="#74E0FF" d="M71.113 4.469h11.048v3.515H71.113zm28.974-.199l3.102-1.653 42.424 79.541-3.101 1.654z"/></g><defs><clipPath id="clip0_392_4044"><path fill="#fff" d="M0 0h320v231H0z"/></clipPath></defs></svg>