<svg width="320" height="117" viewBox="0 0 320 117" fill="none" xmlns="http://www.w3.org/2000/svg">
<g clip-path="url(#clip0_392_3977)">
<rect width="320" height="117" fill="#9470AF"/>
<rect x="102.06" y="46.2579" width="12.4839" height="13.4086" fill="#B690D2"/>
<rect x="120.555" y="36.0858" width="53.172" height="23.5806" fill="#B690D2"/>
<rect x="195.458" y="35.9247" width="68.4301" height="23.7419" fill="#B690D2"/>
<rect x="241" y="26" width="67" height="34" fill="#B690D2"/>
<rect x="195.458" y="17.1289" width="9.24731" height="42.5376" fill="#B690D2"/>
<rect x="211.178" y="17.1289" width="9.24731" height="42.5376" fill="#B690D2"/>
<rect x="225.974" y="17.1289" width="9.24731" height="42.5376" fill="#B690D2"/>
<rect x="12" y="36" width="60" height="24" fill="#B690D2"/>
<rect x="49.3501" y="17.1288" width="41.6129" height="42.5376" fill="#B690D2"/>
<rect x="24.8447" y="17.1288" width="9.24731" height="42.5376" fill="#B690D2"/>
<rect x="75.2427" y="0.0213623" width="9.24731" height="42.5376" fill="#B690D2"/>
<rect x="59.0598" y="0.0213623" width="9.24731" height="42.5376" fill="#B690D2"/>
<rect x="-246.101" y="56.8925" width="887.742" height="120.215" rx="0.924731" fill="#8863A4"/>
<rect x="-246.101" y="69.8387" width="887.742" height="94.3226" rx="0.924731" fill="#7C5798"/>
<rect x="-246.101" y="89.7203" width="887.742" height="54.5591" rx="0.924731" fill="#6D4B87"/>
<rect x="201.931" y="56.8925" width="2.77419" height="45.3118" fill="#5F3E78"/>
<rect x="108.533" y="56.8925" width="2.77419" height="23.5806" fill="#5F3E78"/>
<rect x="108.533" y="65.2152" width="2.77419" height="2.77419" fill="#44245C"/>
<rect x="108.533" y="71.2258" width="2.77419" height="2.77419" fill="#44245C"/>
<rect x="41.0276" y="56.8925" width="2.77419" height="23.5806" fill="#5F3E78"/>
<rect x="51.6622" y="56.8925" width="2.77419" height="23.5806" fill="#5F3E78"/>
<rect x="213.028" y="56.8925" width="2.77419" height="45.3118" fill="#5F3E78"/>
<rect x="159.393" y="56.8925" width="2.77419" height="35.6021" fill="#5F3E78"/>
<rect x="363.759" y="99.4299" width="2.7742" height="161.366" transform="rotate(90 363.759 99.4299)" fill="#5F3E78"/>
<rect x="202.393" y="80.473" width="2.7742" height="161.366" transform="rotate(90 202.393 80.473)" fill="#5F3E78"/>
<rect x="162.167" y="89.7203" width="2.7742" height="193.731" transform="rotate(90 162.167 89.7203)" fill="#5F3E78"/>
<rect x="116.393" y="80.473" width="2.77419" height="2.77419" fill="#44245C"/>
<rect x="139.049" y="80.473" width="2.77419" height="2.77419" fill="#44245C"/>
<rect x="144.598" y="80.473" width="2.77419" height="2.77419" fill="#44245C"/>
<rect x="268.049" y="99.4299" width="2.77419" height="2.77419" fill="#44245C"/>
<rect x="275.447" y="99.4299" width="2.77419" height="2.77419" fill="#44245C"/>
<rect x="201.931" y="80.473" width="2.77419" height="2.77419" fill="#44245C"/>
<rect x="201.931" y="74" width="2.77419" height="2.77419" fill="#44245C"/>
<rect x="213.028" y="89.7203" width="2.77419" height="2.77419" fill="#44245C"/>
<rect x="224.125" y="99.4299" width="2.77419" height="2.77419" fill="#44245C"/>
<rect x="151.995" y="89.7203" width="2.77419" height="2.77419" fill="#44245C"/>
<rect x="89.576" y="89.7203" width="2.77419" height="2.77419" fill="#44245C"/>
<rect x="81.7158" y="89.7203" width="2.77419" height="2.77419" fill="#44245C"/>
<rect x="19.2964" y="89.7203" width="2.77419" height="2.77419" fill="#44245C"/>
<rect x="9.58691" y="89.7203" width="2.77419" height="2.77419" fill="#44245C"/>
<rect x="24.8447" y="89.7203" width="2.77419" height="2.77419" fill="#44245C"/>
</g>
<defs>
<clipPath id="clip0_392_3977">
<rect width="320" height="117" fill="white"/>
</clipPath>
</defs>
</svg>
