<svg width="320" height="231" viewBox="0 0 320 231" fill="none" xmlns="http://www.w3.org/2000/svg">
<g clip-path="url(#clip0_392_4044)">
<rect width="320" height="231" fill="#36ABCC"/>
<rect x="-523.461" y="100.385" width="964.174" height="130.565" rx="1.00435" fill="#009BC7"/>
<rect x="-523.461" y="114.446" width="964.174" height="102.443" rx="1.00435" fill="#008AB0"/>
<rect x="-523.461" y="136.039" width="964.174" height="59.2565" rx="1.00435" fill="#007DA0"/>
<rect x="-523.461" y="165.667" width="964.174" height="15.0652" rx="1.00435" fill="#008AB0"/>
<rect x="119.322" y="80.7999" width="128.557" height="19.5848" fill="#74E0FF"/>
<rect x="232.311" y="47.6565" width="15.5674" height="33.1435" fill="#74E0FF"/>
<rect x="209.211" y="47.6565" width="15.5674" height="33.1435" fill="#74E0FF"/>
<rect x="164.517" y="54.1846" width="39.1696" height="26.6152" fill="#74E0FF"/>
<rect x="61.0696" y="134.03" width="22.0957" height="69.3" fill="#74E0FF"/>
<rect x="65.0869" y="141.563" width="14.0609" height="6.02609" fill="#007DA0"/>
<rect x="65.0869" y="149.598" width="14.0609" height="14.563" fill="#007DA0"/>
<rect x="65.0869" y="166.169" width="14.0609" height="14.0609" fill="#007DA0"/>
<rect x="65.0869" y="182.239" width="14.0609" height="14.563" fill="#007DA0"/>
<rect x="79.0714" y="6.29529" width="3.51522" height="87.8538" transform="rotate(-28.0738 79.0714 6.29529)" fill="#74E0FF"/>
<rect x="71.1129" y="5.97595" width="2.0087" height="130.063" fill="#74E0FF"/>
<rect x="71.1129" y="4.46948" width="11.0478" height="3.51522" fill="#74E0FF"/>
<rect x="100.087" y="4.27051" width="3.51522" height="90.1485" transform="rotate(-28.0738 100.087 4.27051)" fill="#74E0FF"/>
</g>
<defs>
<clipPath id="clip0_392_4044">
<rect width="320" height="231" fill="white"/>
</clipPath>
</defs>
</svg>
