<svg width="225" height="45" fill="none" xmlns="http://www.w3.org/2000/svg"><g opacity=".4" clip-path="url(#clip0_117_2682)" fill="#333"><path d="M121.576 31.22v2.25h-14.315V8.481h13.919v2.25h-11.528v8.672h10.601v2.292h-10.598v9.53l11.921-.007zm21.776-7.782V33.47h-2.293v-9.562c0-4.215-2.034-6.39-5.496-6.39-3.569 0-6.317 2.889-6.317 6.78v9.169h-2.293V15.762h1.893l.357 3.036c1.464-2.106 3.93-3.426 6.852-3.426 4.261 0 7.297 3.033 7.297 8.066zM166.52 25.4h-16.101c.357 3.786 3.141 6.366 7.114 6.366 2.715 0 4.785-1.07 6.069-3.245h2.39c-1.532 3.317-4.46 5.387-8.495 5.387-5.496 0-9.387-3.995-9.387-9.278 0-5.282 3.963-9.238 9.21-9.238 5.355 0 9.246 3.818 9.246 9.209-.01.288-.046.55-.046.799zm-16.065-1.998h13.756c-.39-3.425-2.925-5.924-6.878-5.924-3.629 0-6.35 2.39-6.878 5.924zm31.314-7.64v2.25h-1.785c-3.818 0-6.105 2.427-6.105 6.57v8.887h-2.292V15.762h1.893l.357 3.108c1.356-2.001 3.462-3.108 6.318-3.108h1.614zm20.915 0v15.457c0 6.105-3.534 9.566-9.318 9.566-4.605 0-7.71-2.322-8.745-5.711h2.388c.927 2.25 3.105 3.57 6.39 3.57 4.212 0 6.995-2.391 6.995-7.176v-1.464a9.37 9.37 0 01-7.28 3.249c-5.319 0-9.246-3.89-9.246-8.96s3.93-8.92 9.246-8.92a9.459 9.459 0 017.323 3.294l.357-2.892 1.89-.013zm-2.178 8.531c0-3.854-2.964-6.779-7.176-6.779s-7.176 2.888-7.176 6.779c0 3.89 2.928 6.854 7.176 6.854s7.176-2.947 7.176-6.854zM225 15.762l-8.996 18.847c-2.07 4.283-3.783 5.747-7.425 5.747h-1.264v-2.178h1.179c2.531 0 3.674-.818 5.282-4.103l.891-1.857-8.188-16.456h2.473l6.927 13.957 6.639-13.957H225zM44.869 18.994v14.377h-4.372V19.774c-.026-1.684.242-3.36.79-4.952a10.577 10.577 0 012.19-3.687 9.314 9.314 0 013.357-2.293c1.355-.535 2.8-.803 4.258-.789 3.153 0 5.698 1.035 7.637 3.105 1.94 2.07 2.907 4.943 2.905 8.62V33.37H57.25V18.994c0-1.965-.584-3.565-1.752-4.8a5.82 5.82 0 00-4.405-1.857c-1.874 0-3.376.648-4.507 1.945a6.903 6.903 0 00-1.716 4.712zM67.003 2.758a2.712 2.712 0 01.793-1.946A2.67 2.67 0 0169.76 0a2.598 2.598 0 011.945.79 2.718 2.718 0 01.766 1.964 2.551 2.551 0 01-.815 1.923 2.62 2.62 0 01-1.896.792 2.653 2.653 0 01-1.946-.812 2.593 2.593 0 01-.812-1.9zm.491 5.734h4.435v24.889h-4.435V8.492zM0 2.756A2.708 2.708 0 01.79.811a2.62 2.62 0 011.968-.812 2.6 2.6 0 011.949.79 2.728 2.728 0 01.763 1.964 2.57 2.57 0 01-.813 1.922 2.62 2.62 0 01-1.9.79 2.653 2.653 0 01-1.945-.813A2.62 2.62 0 010 2.756zm.491 5.735h4.422V33.38H.49V8.49zm79.959 24.88h-3.547v-4.225h2.712a5.543 5.543 0 002.217-.419 4.651 4.651 0 001.821-1.477 12.943 12.943 0 001.638-2.855 41.37 41.37 0 001.637-4.608c1.149-3.742 2.562-6.58 4.238-8.515 1.677-1.934 3.517-2.887 5.519-2.859h3.645v4.17h-2.731a3.798 3.798 0 00-2.709 1.083 9.826 9.826 0 00-1.945 2.686 23.92 23.92 0 00-1.405 3.422 188.88 188.88 0 00-1.035 3.3 49.058 49.058 0 01-1.477 4.065 12.502 12.502 0 01-1.946 3.275 8.324 8.324 0 01-2.76 2.168 8.624 8.624 0 01-3.872.789zm15.252-2.613a2.696 2.696 0 01.79-1.94 2.64 2.64 0 011.965-.811 2.602 2.602 0 011.948.789 2.738 2.738 0 01.764 1.965 2.579 2.579 0 01-.813 1.922 2.702 2.702 0 01-3.825 0l-.02-.02a2.595 2.595 0 01-.809-1.905zM22.664 8c2.309.001 4.574.632 6.55 1.825a12.186 12.186 0 014.52 4.912 10.214 10.214 0 011.209 3.89c.083 1.182.123 2.61.12 4.287v8.98c0 4.07-1.14 7.28-3.422 9.631-2.281 2.352-5.373 3.509-9.275 3.472h-6.845v-4.343h6.943c2.53 0 4.527-.73 5.987-2.19 1.46-1.461 2.192-3.522 2.195-6.183V20.959c0-2.62-.74-4.73-2.218-6.33-1.478-1.6-3.383-2.397-5.715-2.39a7.609 7.609 0 00-5.764 2.387c-1.513 1.602-2.269 3.663-2.266 6.183a9.825 9.825 0 00.615 3.572 8.138 8.138 0 001.733 2.758 7.676 7.676 0 002.62 1.798 8.164 8.164 0 003.275.655c1.546 0 4.56-.095 4.56-.095v4.133s-3.361.147-5.104.147a11.395 11.395 0 01-6.697-2.066 12.5 12.5 0 01-4.08-4.67 13.446 13.446 0 01-1.406-6.134c-.013-1.76.305-3.506.937-5.148a12.003 12.003 0 016.576-6.822 11.843 11.843 0 014.952-.936z"/></g><defs><clipPath id="clip0_117_2682"><path fill="#fff" d="M0 0h225v45H0z"/></clipPath></defs></svg>